<?xml version="1.0" encoding="UTF-8"?>
<svg version="1.1" xmlns="http://www.w3.org/2000/svg" width="1024" height="1024">
<path d="M0 0 C337.92 0 675.84 0 1024 0 C1024 337.92 1024 675.84 1024 1024 C686.08 1024 348.16 1024 0 1024 C0 686.08 0 348.16 0 0 Z " fill="#F4D42D" transform="translate(0,0)"/>
<path d="M0 0 C3.60411728 1.087212 6.92308945 2.63358806 10.30200195 4.26904297 C11.39208809 4.78807693 11.39208809 4.78807693 12.50419617 5.31759644 C14.06115309 6.05955197 15.61693185 6.80398398 17.17163086 7.55065918 C21.26186213 9.51480257 25.3607374 11.46077761 29.45825195 13.40966797 C30.26944489 13.79614502 31.08063782 14.18262207 31.91641235 14.58081055 C38.34574069 17.6413131 44.80236145 20.63784141 51.2824707 23.58935547 C64.47664947 29.61278491 77.62714886 35.73152747 90.7824707 41.83935547 C90.7824707 69.55935547 90.7824707 97.27935547 90.7824707 125.83935547 C94.0824707 126.82935547 97.3824707 127.81935547 100.7824707 128.83935547 C103.82841504 129.96261724 106.84659342 131.1068455 109.8605957 132.30810547 C110.67566589 132.62968628 111.49073608 132.95126709 112.33050537 133.28259277 C114.03532613 133.95628085 115.73936191 134.63195859 117.44262695 135.30957031 C120.03824708 136.3416523 122.63669684 137.36634291 125.2355957 138.39013672 C126.90243406 139.04985935 128.56910663 139.71000104 130.2355957 140.37060547 C131.00446106 140.67381714 131.77332642 140.97702881 132.56549072 141.28942871 C133.65757843 141.72503113 133.65757843 141.72503113 134.77172852 142.16943359 C135.40330872 142.42019653 136.03488892 142.67095947 136.68560791 142.92932129 C139.43501615 144.12255886 142.10171535 145.49897779 144.7824707 146.83935547 C144.7824707 172.57935547 144.7824707 198.31935547 144.7824707 224.83935547 C152.7024707 224.83935547 160.6224707 224.83935547 168.7824707 224.83935547 C168.7824707 229.45935547 168.7824707 234.07935547 168.7824707 238.83935547 C65.4924707 238.83935547 -37.7975293 238.83935547 -144.2175293 238.83935547 C-144.2175293 234.21935547 -144.2175293 229.59935547 -144.2175293 224.83935547 C-136.2975293 224.83935547 -128.3775293 224.83935547 -120.2175293 224.83935547 C-120.2175293 194.14935547 -120.2175293 163.45935547 -120.2175293 131.83935547 C-109.06216818 125.96811278 -98.09728302 120.22313821 -86.6550293 115.02685547 C-84.31974623 113.95926061 -81.98509864 112.89027447 -79.65112305 111.81982422 C-78.56299316 111.32144043 -77.47486328 110.82305664 -76.35375977 110.30957031 C-72.56471094 108.53332463 -68.83902111 106.64876217 -65.12792969 104.71557617 C-63.2175293 103.83935547 -63.2175293 103.83935547 -61.2175293 103.83935547 C-61.2375148 102.98824188 -61.25750031 102.1371283 -61.27809143 101.26022339 C-61.4586513 93.22736922 -61.59555814 85.1951991 -61.68383884 77.16077995 C-61.73075346 73.03029496 -61.794343 68.90149036 -61.89648438 64.77197266 C-61.99449884 60.78420735 -62.04813004 56.79805446 -62.07142448 52.8091774 C-62.08801636 51.2899448 -62.12042133 49.77079767 -62.16909981 48.25225449 C-62.5343264 36.38351043 -62.5343264 36.38351043 -59.34999084 32.64936829 C-57.03395953 31.07445974 -54.79207722 29.93105309 -52.2175293 28.83935547 C-51.23824463 28.25855225 -50.25895996 27.67774902 -49.25 27.0793457 C-48.38979248 26.60698486 -47.52958496 26.13462402 -46.64331055 25.64794922 C-45.6560498 25.10170898 -44.66878906 24.55546875 -43.65161133 23.99267578 C-42.62148926 23.42645508 -41.59136719 22.86023438 -40.5300293 22.27685547 C-31.90035264 17.49103807 -23.33255263 12.61908451 -14.8425293 7.58935547 C-13.91609619 7.04077881 -12.98966309 6.49220215 -12.03515625 5.92700195 C-1.84334722 -0.13353765 -1.84334722 -0.13353765 0 0 Z " fill="#030302" transform="translate(500.217529296875,386.16064453125)"/>
<path d="M0 0 C5.91150562 2.36460225 11.73721059 4.70860511 17.5078125 7.36328125 C18.52281326 7.82699631 18.52281326 7.82699631 19.55831909 8.30007935 C21.74837604 9.30170141 23.93673601 10.30696761 26.125 11.3125 C27.65882711 12.0151144 29.19268171 12.7176688 30.7265625 13.42016602 C42.89724359 19.0018349 55.02717077 24.6696546 67.13330078 30.38989258 C67.7773587 30.69353729 68.42141663 30.99718201 69.08499146 31.31002808 C70.81640657 32.12649115 72.5469099 32.94488699 74.27734375 33.76342773 C77.00706165 35.0603441 77.00706165 35.0603441 80 36 C80 94.08 80 152.16 80 212 C53.6 212 27.2 212 0 212 C0 142.04 0 72.08 0 0 Z " fill="#F1CF2B" transform="translate(501,399)"/>
<path d="M0 0 C6.75322984 2.25107661 6.75322984 2.25107661 9.9699707 3.49633789 C10.6870369 3.77324966 11.40410309 4.05016144 12.14289856 4.33546448 C12.89624985 4.62823776 13.64960114 4.92101105 14.42578125 5.22265625 C15.60807564 5.68097084 15.60807564 5.68097084 16.81425476 6.14854431 C18.46931644 6.79074227 20.12408167 7.4337047 21.77856445 8.07739258 C24.32062606 9.06565913 26.86436264 10.049526 29.40820312 11.03320312 C31.01833287 11.65858723 32.62836253 12.28422909 34.23828125 12.91015625 C35.00175369 13.20495377 35.76522614 13.49975128 36.55183411 13.80348206 C41.88552785 15.88552785 41.88552785 15.88552785 43 17 C43.09436529 19.23929886 43.11742327 21.4816175 43.11352539 23.72290039 C43.11367142 24.4253035 43.11381744 25.1277066 43.1139679 25.85139465 C43.11326872 28.18351278 43.10547617 30.515552 43.09765625 32.84765625 C43.09579208 34.46048438 43.09436818 36.07331307 43.09336853 37.68614197 C43.08954323 41.93915357 43.07971285 46.19213124 43.06866455 50.44512939 C43.05665612 55.54371692 43.05204825 60.64231578 43.04621124 65.74091339 C43.03650109 73.49396589 43.01734464 81.24694387 43 89 C28.81 89 14.62 89 0 89 C0 59.63 0 30.26 0 0 Z " fill="#F1CE2C" transform="translate(591,522)"/>
<path d="M0 0 C0 34.32 0 68.64 0 104 C-4.62 104 -9.24 104 -14 104 C-14 83.54 -14 63.08 -14 42 C-22.91 45.63 -31.82 49.26 -41 53 C-42.98 53.495 -42.98 53.495 -45 54 C-45 43.11 -45 32.22 -45 21 C-34.78218301 15.78891334 -24.46330961 10.83286112 -14.0625 6 C-13.42542114 5.70324371 -12.78834229 5.40648743 -12.13195801 5.10073853 C-10.30910069 4.25234199 -8.48466062 3.40734868 -6.66015625 2.5625 C-5.59418213 2.06878906 -4.52820801 1.57507813 -3.42993164 1.06640625 C-1 0 -1 0 0 0 Z " fill="#F1CE2C" transform="translate(441,503)"/>
<path d="M0 0 C0.65214981 -0.00524185 1.30429962 -0.0104837 1.97621155 -0.0158844 C3.35383686 -0.02229972 4.73151698 -0.02097382 6.10913086 -0.01245117 C8.21242326 -0.00394762 10.31299208 -0.03268986 12.41601562 -0.06445312 C13.75650961 -0.06606554 15.09700838 -0.06548684 16.4375 -0.0625 C18.26269165 -0.06527954 18.26269165 -0.06527954 20.12475586 -0.06811523 C23.28515625 0.43359375 23.28515625 0.43359375 25.67773438 1.95898438 C27.91260706 5.39954779 27.87780853 8.54872332 27.8515625 12.5234375 C27.86086037 13.69574669 27.86086037 13.69574669 27.87034607 14.89173889 C27.87743728 16.54166419 27.8742823 18.19166115 27.86157227 19.84155273 C27.84771779 22.35990815 27.88176601 24.8745372 27.91992188 27.39257812 C27.92087327 28.99869882 27.91901316 30.60482415 27.9140625 32.2109375 C27.92732071 32.96003891 27.94057892 33.70914032 27.95423889 34.48094177 C27.88613852 38.32501462 27.40044439 40.27502541 25.12084961 43.41040039 C21.84407488 45.74829382 20.26864448 46.05473023 16.28515625 46.02734375 C15.15078125 46.02476562 14.01640625 46.0221875 12.84765625 46.01953125 C11.08421875 45.97699219 11.08421875 45.97699219 9.28515625 45.93359375 C8.10953125 45.93617188 6.93390625 45.93875 5.72265625 45.94140625 C-4.05846306 45.83025717 -4.05846306 45.83025717 -8.71484375 42.43359375 C-10.31355944 39.23616236 -9.89906056 35.76300259 -9.91796875 32.25 C-9.92366882 31.43869125 -9.9293689 30.62738251 -9.9352417 29.79148865 C-9.94469361 28.07414048 -9.95122644 26.35677416 -9.95507812 24.6394043 C-9.96479262 22.00993326 -9.99581693 19.38124092 -10.02734375 16.75195312 C-10.03387293 15.08464007 -10.03912373 13.41732141 -10.04296875 11.75 C-10.05531555 10.96242813 -10.06766235 10.17485626 -10.0803833 9.36341858 C-10.06837132 6.4252204 -10.05483634 4.04903388 -8.61401367 1.44091797 C-5.73145708 -0.08799687 -3.24771447 0.0260437 0 0 Z " fill="#080703" transform="translate(415.71484375,654.56640625)"/>
<path d="M0 0 C1.21128319 -0.01142029 1.21128319 -0.01142029 2.44703674 -0.02307129 C4.15419423 -0.03387197 5.86141779 -0.0367255 7.56860352 -0.03222656 C10.17901997 -0.03125461 12.78649282 -0.07286271 15.39648438 -0.1171875 C17.05598346 -0.12239493 18.71549275 -0.12508269 20.375 -0.125 C21.15427353 -0.14139526 21.93354706 -0.15779053 22.73643494 -0.17468262 C26.66199285 -0.12469653 28.36968388 0.0989783 31.24658203 2.86767578 C33.54705071 6.83741878 33.40071341 10.00958534 32.75390625 14.46875 C31.99328841 17.07519838 31.06255777 19.05277795 29.75390625 21.46875 C27.12667229 22.78236698 25.02780064 22.68128909 22.08984375 22.78515625 C20.96835937 22.82705078 19.846875 22.86894531 18.69140625 22.91210938 C17.51578125 22.95142578 16.34015625 22.99074219 15.12890625 23.03125 C13.94554687 23.07443359 12.7621875 23.11761719 11.54296875 23.16210938 C8.61340297 23.26842426 5.68375037 23.37045642 2.75390625 23.46875 C2.42390625 24.12875 2.09390625 24.78875 1.75390625 25.46875 C11.98390625 25.46875 22.21390625 25.46875 32.75390625 25.46875 C33.24890625 28.93375 33.24890625 28.93375 33.75390625 32.46875 C30.20272451 35.91111164 26.80008809 35.90752336 22.1015625 35.8671875 C21.36441513 35.87005768 20.62726776 35.87292786 19.86778259 35.87588501 C18.31199371 35.87792226 16.75617902 35.87241606 15.20043945 35.85986328 C12.82770029 35.84382633 10.45667023 35.85971016 8.08398438 35.87890625 C6.56900668 35.87692331 5.05403004 35.87307858 3.5390625 35.8671875 C2.83370865 35.87326019 2.1283548 35.87933289 1.40162659 35.8855896 C-2.98470601 35.82344065 -5.76814421 35.17280712 -9.24609375 32.46875 C-11.51507912 29.06527194 -11.59915493 27.54954464 -11.68359375 23.53125 C-11.72355469 22.49097656 -11.76351563 21.45070313 -11.8046875 20.37890625 C-11.24609375 17.46875 -11.24609375 17.46875 -9.08349609 15.32495117 C-5.84804297 13.20834903 -4.11588535 12.93787393 -0.2890625 12.859375 C0.82275391 12.82714844 1.93457031 12.79492188 3.08007812 12.76171875 C4.80581055 12.74044922 4.80581055 12.74044922 6.56640625 12.71875 C7.73623047 12.68910156 8.90605469 12.65945313 10.11132812 12.62890625 C12.99225634 12.55835291 15.87238203 12.50558271 18.75390625 12.46875 C19.08390625 11.80875 19.41390625 11.14875 19.75390625 10.46875 C18.45187256 10.48446045 18.45187256 10.48446045 17.12353516 10.50048828 C13.90691097 10.53454716 10.69037858 10.55963767 7.47363281 10.57861328 C6.08069844 10.58867877 4.68778523 10.60233234 3.29492188 10.61962891 C1.29436265 10.6438522 -0.7063499 10.65415814 -2.70703125 10.6640625 C-3.91149902 10.67453613 -5.1159668 10.68500977 -6.35693359 10.69580078 C-9.24609375 10.46875 -9.24609375 10.46875 -11.24609375 8.46875 C-11.58833294 5.79928428 -11.67141999 4.15953027 -10.24194336 1.83789062 C-7.08699977 -0.32638138 -3.69802376 0.00095334 0 0 Z " fill="#080804" transform="translate(498.24609375,681.53125)"/>
<path d="M0 0 C3.5625 0.25 3.5625 0.25 6.5625 2.25 C6.5625 3.57 6.5625 4.89 6.5625 6.25 C13.4925 6.25 20.4225 6.25 27.5625 6.25 C27.5625 4.6 27.5625 2.95 27.5625 1.25 C29.14172406 -0.32922406 30.75693874 0.042341 32.9375 0 C33.72898437 -0.02578125 34.52046875 -0.0515625 35.3359375 -0.078125 C38.15356809 0.33710477 38.84066019 1.00912074 40.5625 3.25 C40.95068359 5.63842773 40.95068359 5.63842773 40.9609375 8.43359375 C40.96673828 9.94856445 40.96673828 9.94856445 40.97265625 11.49414062 C40.96105469 12.54794922 40.94945312 13.60175781 40.9375 14.6875 C40.94910156 15.73744141 40.96070313 16.78738281 40.97265625 17.86914062 C40.96878906 18.88041016 40.96492187 19.89167969 40.9609375 20.93359375 C40.95755371 21.85712646 40.95416992 22.78065918 40.95068359 23.73217773 C40.48967694 26.72234226 39.64657031 28.08115914 37.5625 30.25 C33.99472023 31.43925992 30.72304511 31.43096582 27.0078125 31.453125 C26.26925018 31.45882507 25.53068787 31.46452515 24.76974487 31.47039795 C23.20800199 31.47983645 21.6462393 31.48637737 20.08447266 31.49023438 C17.70309474 31.49993646 15.32258156 31.53096778 12.94140625 31.5625 C11.42188011 31.56903094 9.90234781 31.57428106 8.3828125 31.578125 C7.67432159 31.5904718 6.96583069 31.6028186 6.23587036 31.61553955 C1.42228626 31.59399903 -1.97625921 30.71124079 -5.4375 27.25 C-5.69051239 23.11037717 -5.62272549 18.95894004 -5.625 14.8125 C-5.63724609 13.64138672 -5.64949219 12.47027344 -5.66210938 11.26367188 C-5.66404297 10.14669922 -5.66597656 9.02972656 -5.66796875 7.87890625 C-5.67207764 6.84838135 -5.67618652 5.81785645 -5.68041992 4.75610352 C-5.28110639 0.63655231 -4.00519216 0.2912867 0 0 Z " fill="#070603" transform="translate(552.4375,641.75)"/>
<path d="M0 0 C4.31633181 3.18586395 7.91120739 6.79612218 9.625 11.9375 C10.26357558 19.47269181 8.46435616 24.4569989 3.6875 30.3125 C-1.7431797 34.59121734 -7.74083498 34.68082381 -14.375 33.9375 C-19.07738189 32.56271725 -21.7568835 30.71410791 -24.8125 26.875 C-27.64231419 21.55494933 -28.13973284 16.87077202 -27.375 10.9375 C-25.4905242 5.97701885 -22.38158004 1.95184871 -17.53125 -0.44140625 C-11.74760126 -2.10734855 -5.69256864 -1.79210494 0 0 Z " fill="#080704" transform="translate(500.375,645.0625)"/>
<path d="M0 0 C4.96205334 2.25884518 8.13223801 5.34260102 10.59375 10.265625 C11.12969791 16.4826207 10.44656663 21.19967661 6.59375 26.265625 C1.09942462 30.68913059 -4.94967214 31.67790634 -11.80078125 31.6171875 C-17.04448119 30.90964178 -20.85021192 27.97224741 -24.34375 24.140625 C-26.86990763 19.68269977 -26.99637644 15.25176577 -26.40625 10.265625 C-21.51240005 -0.33771655 -10.7418155 -3.27834629 0 0 Z " fill="#070604" transform="translate(646.40625,686.734375)"/>
<path d="M0 0 C3.51448375 0 5.89382248 0.41234319 9 2.0625 C10.6614439 5.28154755 9.78830767 8.56210264 9 12 C8.67 12.66 8.34 13.32 8 14 C8.66 14.20625 9.32 14.4125 10 14.625 C16.48543204 17.59748969 23.48157497 22.65034233 27 29 C27.0625 32.8125 27.0625 32.8125 26 36 C23 38 23 38 20.75 38.5625 C16.95564073 37.78638106 15.48612828 35.73479237 12.90234375 32.953125 C9.19867137 29.15058663 5.06087606 25.68695869 0 24 C-0.21914063 24.56460938 -0.43828125 25.12921875 -0.6640625 25.7109375 C-2.42857539 28.73434263 -4.64910778 30.43990141 -7.375 32.625 C-8.33148438 33.40101563 -9.28796875 34.17703125 -10.2734375 34.9765625 C-15.81210355 39.08691925 -15.81210355 39.08691925 -19.5625 38.8125 C-22.28199487 37.90600171 -23.42827309 37.3989516 -25 35 C-25.484375 32.2734375 -25.484375 32.2734375 -25 29 C-23.1068081 26.59561175 -20.79333861 24.75127628 -18.4375 22.8125 C-13.06783377 18.14181967 -8.96079053 13.69805024 -5.4296875 7.4375 C-3.8202744 4.69358258 -2.17368602 2.32746495 0 0 Z " fill="#070603" transform="translate(372,647)"/>
<path d="M0 0 C7.12634246 -0.67869928 7.12634246 -0.67869928 9.60498047 1.24682617 C11.37612364 3.47268881 11.34967919 4.63260006 11.29296875 7.44921875 C11.28330078 8.29677734 11.27363281 9.14433594 11.26367188 10.01757812 C11.23853516 10.89865234 11.21339844 11.77972656 11.1875 12.6875 C11.17396484 13.58017578 11.16042969 14.47285156 11.14648438 15.39257812 C11.11114079 17.59566166 11.06180493 19.79752582 11 22 C11.93972656 21.96519531 11.93972656 21.96519531 12.8984375 21.9296875 C13.71570313 21.91164063 14.53296875 21.89359375 15.375 21.875 C16.59316406 21.84019531 16.59316406 21.84019531 17.8359375 21.8046875 C20 22 20 22 22 24 C22.25 27.5 22.25 27.5 22 31 C20 33 20 33 17.8359375 33.1953125 C17.02382813 33.17210937 16.21171875 33.14890625 15.375 33.125 C14.55773437 33.10695313 13.74046875 33.08890625 12.8984375 33.0703125 C12.27195312 33.04710937 11.64546875 33.02390625 11 33 C11.02356567 33.86951294 11.02356567 33.86951294 11.04760742 34.7565918 C11.11022791 37.40012739 11.14907518 40.04350655 11.1875 42.6875 C11.22520508 44.05551758 11.22520508 44.05551758 11.26367188 45.45117188 C11.3608626 54.36032145 11.3608626 54.36032145 8 58 C5.08576068 58.87715718 3.10206938 58.39391357 0 58 C-2.19002909 54.71495636 -2.25211112 53.74458679 -2.25878906 49.93359375 C-2.26509338 48.90242432 -2.27139771 47.87125488 -2.27789307 46.80883789 C-2.2738446 45.69629639 -2.26979614 44.58375488 -2.265625 43.4375 C-2.26753845 42.29466553 -2.2694519 41.15183105 -2.27142334 39.97436523 C-2.27278505 37.55680115 -2.26908964 35.13922975 -2.26074219 32.72167969 C-2.25004274 29.01480736 -2.26063826 25.3084197 -2.2734375 21.6015625 C-2.2721159 19.25520726 -2.26955351 16.90885232 -2.265625 14.5625 C-2.26967346 13.4499585 -2.27372192 12.33741699 -2.27789307 11.19116211 C-2.27158875 10.15999268 -2.26528442 9.12882324 -2.25878906 8.06640625 C-2.25719788 7.15834229 -2.25560669 6.25027832 -2.25396729 5.31469727 C-2 3 -2 3 0 0 Z " fill="#040403" transform="translate(451,649)"/>
<path d="M0 0 C1.07443863 -0.00630432 2.14887726 -0.01260864 3.25587463 -0.019104 C4.41530075 -0.01505554 5.57472687 -0.01100708 6.76928711 -0.00683594 C7.95888535 -0.00874939 9.14848358 -0.01066284 10.37413025 -0.01263428 C12.89004732 -0.01399601 15.40597141 -0.01030041 17.921875 -0.00195312 C21.78458335 0.00875566 25.64682757 -0.00185399 29.50952148 -0.01464844 C31.95027772 -0.01332703 34.39103367 -0.01076502 36.83178711 -0.00683594 C38.57396263 -0.01290863 38.57396263 -0.01290863 40.35133362 -0.019104 C41.42262009 -0.01279968 42.49390656 -0.00649536 43.59765625 0 C44.54347061 0.00159119 45.48928497 0.00318237 46.46376038 0.00482178 C48.73413086 0.25878906 48.73413086 0.25878906 50.73413086 2.25878906 C51.17163086 5.69628906 51.17163086 5.69628906 50.73413086 9.25878906 C46.47699724 12.94381776 42.24033705 12.62016127 36.92163086 12.44628906 C36.13336914 12.43275391 35.34510742 12.41921875 34.53295898 12.40527344 C32.59971917 12.37012362 30.66683404 12.31632267 28.73413086 12.25878906 C28.77538086 13.51691406 28.81663086 14.77503906 28.85913086 16.07128906 C28.97316826 19.54942979 28.79338767 20.16990384 26.73413086 23.25878906 C24.64038086 23.65722656 24.64038086 23.65722656 22.23413086 23.63378906 C21.44006836 23.64152344 20.64600586 23.64925781 19.82788086 23.65722656 C19.13694336 23.52574219 18.44600586 23.39425781 17.73413086 23.25878906 C15.05485744 19.23987894 15.57811837 17.01716984 15.73413086 12.25878906 C14.8567627 12.28235474 14.8567627 12.28235474 13.96166992 12.30639648 C11.30258921 12.36889174 8.64366322 12.40782475 5.98413086 12.44628906 C4.60354492 12.48399414 4.60354492 12.48399414 3.19506836 12.52246094 C2.30561523 12.53212891 1.41616211 12.54179688 0.49975586 12.55175781 C-0.3171875 12.56746826 -1.13413086 12.58317871 -1.97583008 12.59936523 C-4.85724885 12.17083867 -6.20056892 11.29406021 -8.26586914 9.25878906 C-8.70336914 5.69628906 -8.70336914 5.69628906 -8.26586914 2.25878906 C-4.93591179 0.03881749 -3.88139845 0.00652437 0 0 Z " fill="#080704" transform="translate(548.265869140625,675.7412109375)"/>
<path d="M0 0 C6.94214876 -0.66115702 6.94214876 -0.66115702 10 1.25 C11 3 11 3 11 7 C12.258125 6.938125 13.51625 6.87625 14.8125 6.8125 C17.39469981 6.83081347 18.74451965 6.86838891 21.0625 8.0625 C22.58299975 11.20486615 21.78072633 13.69692708 21 17 C19 19 19 19 15.375 19.125 C14.26125 19.08375 13.1475 19.0425 12 19 C12 19.99 12 20.98 12 22 C13.093125 21.938125 14.18625 21.87625 15.3125 21.8125 C19 22 19 22 20.9375 23.125 C22.52990283 25.93512264 22.45319325 27.82764724 22 31 C20.4375 33.375 20.4375 33.375 18 35 C14.25 35.25 14.25 35.25 11 35 C10.87625 35.61875 10.7525 36.2375 10.625 36.875 C10 39 10 39 8 41 C4.5352885 41.45191889 2.71932551 41.511569 -0.16650391 39.45922852 C-2.6435438 36.13682867 -2.54113043 33.25965053 -2.4609375 29.27734375 C-2.46002106 28.53545303 -2.45910461 27.79356232 -2.4581604 27.02919006 C-2.45213211 25.46495137 -2.43640902 23.90072381 -2.41162109 22.33666992 C-2.37507042 19.94211336 -2.37060215 17.54910353 -2.37109375 15.15429688 C-2.36126349 13.63279913 -2.34960688 12.11131185 -2.3359375 10.58984375 C-2.33371185 9.87416733 -2.33148621 9.15849091 -2.32919312 8.42112732 C-2.25889236 4.74309924 -2.09475556 3.14213334 0 0 Z " fill="#080704" transform="translate(647,645)"/>
<path d="M0 0 C1.09445938 -0.00622879 2.18891876 -0.01245758 3.31654358 -0.01887512 C4.49784348 -0.00966537 5.67914337 -0.00045563 6.89624023 0.0090332 C8.71393166 0.00828545 8.71393166 0.00828545 10.56834412 0.00752258 C13.13135416 0.00986448 15.69436643 0.01959967 18.25732422 0.03613281 C22.19250927 0.05974052 26.12701794 0.05669245 30.06225586 0.05004883 C32.54858805 0.0556248 35.03491737 0.06273416 37.52124023 0.0715332 C39.29622643 0.07016609 39.29622643 0.07016609 41.10707092 0.06877136 C42.19837814 0.07830338 43.28968536 0.08783539 44.4140625 0.09765625 C45.37764175 0.10226364 46.34122101 0.10687103 47.33399963 0.11161804 C49.64233398 0.37231445 49.64233398 0.37231445 51.64233398 2.37231445 C52.07983398 5.80981445 52.07983398 5.80981445 51.64233398 9.37231445 C46.90077964 14.27737068 37.86101818 13.34466626 31.46875 13.48266602 C27.56620067 13.54275945 23.66420255 13.55801251 19.76123047 13.55761719 C17.31712983 13.55982593 14.87346591 13.5781105 12.42944336 13.59692383 C10.85848134 13.59985482 9.28751721 13.60184158 7.71655273 13.6027832 C6.63358162 13.61356148 6.63358162 13.61356148 5.5287323 13.6245575 C0.22158376 13.60071347 -4.48442385 13.24555662 -8.35766602 9.37231445 C-8.91280553 4.154003 -8.91280553 4.154003 -7.17298889 1.70417786 C-4.69705917 -0.1123586 -3.0560667 -0.00199462 0 0 Z " fill="#080704" transform="translate(350.357666015625,694.627685546875)"/>
<path d="M0 0 C3.625 0.375 3.625 0.375 5.8359375 1.7890625 C8.56873217 5.7390845 8.05466902 9.44669504 7.875 14.125 C7.85695313 15.01316406 7.83890625 15.90132812 7.8203125 16.81640625 C7.77327374 19.00370848 7.70757009 21.18879816 7.625 23.375 C8.60895752 23.3138501 8.60895752 23.3138501 9.61279297 23.25146484 C12.57466036 23.07346927 15.53719159 22.91154098 18.5 22.75 C19.53253906 22.68554688 20.56507813 22.62109375 21.62890625 22.5546875 C22.61503906 22.503125 23.60117187 22.4515625 24.6171875 22.3984375 C25.52839355 22.34606934 26.43959961 22.29370117 27.37841797 22.23974609 C29.625 22.375 29.625 22.375 31.625 24.375 C32.26339286 30.12053571 32.26339286 30.12053571 31.625 32.375 C25.80325143 36.73697481 19.53751856 35.85126968 12.5625 35.8125 C11.28310547 35.83248047 10.00371094 35.85246094 8.68554688 35.87304688 C7.45771484 35.87240234 6.22988281 35.87175781 4.96484375 35.87109375 C3.28442993 35.87387329 3.28442993 35.87387329 1.57006836 35.87670898 C-1.375 35.375 -1.375 35.375 -3.74243164 33.76049805 C-5.91051533 30.59250855 -5.86252199 28.53232729 -5.8359375 24.7109375 C-5.83207031 23.42445313 -5.82820312 22.13796875 -5.82421875 20.8125 C-5.81181152 20.14605469 -5.7994043 19.47960937 -5.78662109 18.79296875 C-5.74999096 16.74949542 -5.7456027 14.70783065 -5.74609375 12.6640625 C-5.63731941 0.62636882 -5.63731941 0.62636882 0 0 Z " fill="#060503" transform="translate(610.375,647.625)"/>
<path d="M0 0 C5.80512153 0.23871528 5.80512153 0.23871528 8.02734375 2.4609375 C8.44140625 4.625 8.44140625 4.625 8.65234375 7.0859375 C8.72710938 7.90320313 8.801875 8.72046875 8.87890625 9.5625 C8.95238281 10.50222656 8.95238281 10.50222656 9.02734375 11.4609375 C9.96118896 11.48599365 10.89503418 11.5110498 11.85717773 11.53686523 C15.31059564 11.63180678 18.76383335 11.73105008 22.21704102 11.83325195 C23.71373644 11.87665563 25.21048314 11.91832663 26.70727539 11.95825195 C28.85448687 12.01582366 31.00143896 12.07955466 33.1484375 12.14453125 C35.08867798 12.19951782 35.08867798 12.19951782 37.06811523 12.25561523 C40.02734375 12.4609375 40.02734375 12.4609375 41.02734375 13.4609375 C41.16849536 16.13152601 41.06981482 18.78525988 41.02734375 21.4609375 C34.37751521 25.16179655 28.06677919 24.87442258 20.58984375 24.7734375 C18.80610352 24.77827148 18.80610352 24.77827148 16.98632812 24.78320312 C1.37144302 24.68783181 1.37144302 24.68783181 -3.47265625 20.0859375 C-5.5975799 14.95070535 -5.82109957 9.94906639 -4.97265625 4.4609375 C-3.5712287 1.88162299 -2.89838083 0.67724542 0 0 Z " fill="#080804" transform="translate(550.97265625,691.5390625)"/>
<path d="M0 0 C1.0209375 0.01546875 1.0209375 0.01546875 2.0625 0.03125 C2.743125 0.0209375 3.42375 0.010625 4.125 0 C6.93530228 0.77056676 7.58214001 2.05377101 9.0625 4.53125 C9.45068359 7.38452148 9.45068359 7.38452148 9.4609375 10.65234375 C9.46480469 11.83505859 9.46867188 13.01777344 9.47265625 14.23632812 C9.46105469 15.46802734 9.44945312 16.69972656 9.4375 17.96875 C9.44910156 19.19658203 9.46070313 20.42441406 9.47265625 21.68945312 C9.46878906 22.87345703 9.46492187 24.05746094 9.4609375 25.27734375 C9.45755371 26.35685303 9.45416992 27.4363623 9.45068359 28.54858398 C9.01198916 31.91935752 8.09423253 33.82627337 6.0625 36.53125 C3.87109375 37.125 3.87109375 37.125 1.5 37.03125 C0.71496094 37.0209375 -0.07007813 37.010625 -0.87890625 37 C-2.9375 36.53125 -2.9375 36.53125 -4.9375 33.53125 C-5.32311472 29.40465838 -5.26669577 25.27774565 -5.25317383 21.13452148 C-5.25001611 19.10410778 -5.27347175 17.07515524 -5.29882812 15.04492188 C-5.29947266 13.76294922 -5.30011719 12.48097656 -5.30078125 11.16015625 C-5.30376221 9.98525635 -5.30674316 8.81035645 -5.30981445 7.59985352 C-4.85390298 3.84224607 -3.86843169 1.06069901 0 0 Z " fill="#0B0A04" transform="translate(522.9375,642.46875)"/>
<path d="M0 0 C3.63 0 7.26 0 11 0 C11 6.6 11 13.2 11 20 C7.37 20 3.74 20 0 20 C0 13.4 0 6.8 0 0 Z " fill="#EFCC35" transform="translate(419,667)"/>
<path d="M0 0 C0.33 0 0.66 0 1 0 C1.01458252 0.98395752 1.02916504 1.96791504 1.04418945 2.98168945 C1.10216998 6.63293774 1.17940185 10.28356911 1.26245117 13.93432617 C1.29570188 15.51430243 1.32373346 17.09439752 1.34643555 18.67456055 C1.37998016 20.94631579 1.43229227 23.21698203 1.48828125 25.48828125 C1.49467117 26.19463211 1.5010611 26.90098297 1.50764465 27.6287384 C1.59433516 30.52128162 1.66437754 32.52597158 3.36401367 34.92651367 C5.50589243 36.3319518 7.48275538 36.65983181 10 37 C8.375 38.625 8.375 38.625 6 40 C3.99504414 39.34838935 1.99640639 38.67735217 0 38 C-7.04096335 37.37326613 -12.75255705 37.59230384 -19 41 C-19.5625 39.0625 -19.5625 39.0625 -20 37 C-19.505 36.505 -19.505 36.505 -19 36 C-22.63 35.67 -26.26 35.34 -30 35 C-30 34.67 -30 34.34 -30 34 C-28.98631348 33.970271 -28.98631348 33.970271 -27.95214844 33.93994141 C-24.88437956 33.84456762 -21.81728002 33.73493835 -18.75 33.625 C-17.15478516 33.57859375 -17.15478516 33.57859375 -15.52734375 33.53125 C-13.99013672 33.47324219 -13.99013672 33.47324219 -12.421875 33.4140625 C-11.47924805 33.3826416 -10.53662109 33.3512207 -9.56542969 33.31884766 C-6.89782534 32.98730109 -5.23454856 32.4822652 -3 31 C-0.36764779 24.80972658 -0.56416045 18.20282 -0.375 11.5625 C-0.33632813 10.44939453 -0.29765625 9.33628906 -0.2578125 8.18945312 C-0.16409034 5.45979524 -0.07837706 2.73013437 0 0 Z " fill="#DDBD32" transform="translate(644,649)"/>
<path d="M0 0 C0 5.61 0 11.22 0 17 C-7.75 21 -7.75 21 -10 21 C-10 15.39 -10 9.78 -10 4 C-2.25 0 -2.25 0 0 0 Z " fill="#110E05" transform="translate(412,526)"/>
<path d="M0 0 C0 5.61 0 11.22 0 17 C-4.455 18.485 -4.455 18.485 -9 20 C-9 14.39 -9 8.78 -9 3 C-3 0 -3 0 0 0 Z " fill="#131106" transform="translate(427,520)"/>
<path d="M0 0 C1.0625 1.875 1.0625 1.875 2 4 C1.67 4.66 1.34 5.32 1 6 C1.99 6.66 2.98 7.32 4 8 C-12.83 8 -29.66 8 -47 8 C-47 7.67 -47 7.34 -47 7 C-45.02 7 -43.04 7 -41 7 C-41 6.34 -41 5.68 -41 5 C-39.93040039 4.98018066 -38.86080078 4.96036133 -37.75878906 4.93994141 C-33.78524488 4.8637902 -29.81206234 4.77508758 -25.83886719 4.68261719 C-24.12018989 4.64436673 -22.40143362 4.60950697 -20.68261719 4.578125 C-18.2099996 4.53238872 -15.73792387 4.47440916 -13.265625 4.4140625 C-12.49881409 4.40251129 -11.73200317 4.39096008 -10.94195557 4.37905884 C-5.65790452 4.24538173 -5.65790452 4.24538173 -1 2 C-0.67 1.34 -0.34 0.68 0 0 Z " fill="#E0BE2F" transform="translate(592,668)"/>
<path d="M0 0 C0 4.95 0 9.9 0 15 C-2.97 15.66 -5.94 16.32 -9 17 C-9 12.05 -9 7.1 -9 2 C-4 0 -4 0 0 0 Z " fill="#D7B626" transform="translate(469,524)"/>
<path d="M0 0 C0 4.95 0 9.9 0 15 C-4.455 15.495 -4.455 15.495 -9 16 C-9 11.38 -9 6.76 -9 2 C-4 0 -4 0 0 0 Z " fill="#D9BB27" transform="translate(485,519)"/>
<path d="M0 0 C0 5.28 0 10.56 0 16 C-3.96 16.495 -3.96 16.495 -8 17 C-8 11.72 -8 6.44 -8 1 C-4 0 -4 0 0 0 Z " fill="#E4C328" transform="translate(418,587)"/>
<path d="M0 0 C0 5.28 0 10.56 0 16 C-3.96 16.495 -3.96 16.495 -8 17 C-8 12.05 -8 7.1 -8 2 C-3 0 -3 0 0 0 Z " fill="#EAC72F" transform="translate(404,589)"/>
<path d="M0 0 C0 4.95 0 9.9 0 15 C-2.64 15.66 -5.28 16.32 -8 17 C-8 11.72 -8 6.44 -8 1 C-5 0 -5 0 0 0 Z " fill="#FAD933" transform="translate(404,564)"/>
<path d="M0 0 C0 4.95 0 9.9 0 15 C-5 17 -5 17 -8 17 C-8 12.05 -8 7.1 -8 2 C-3 0 -3 0 0 0 Z " fill="#F1D02D" transform="translate(484,428)"/>
<path d="M0 0 C2.64 0 5.28 0 8 0 C8.66 3.3 9.32 6.6 10 10 C14.50901363 10.17957899 14.50901363 10.17957899 19 10 C19.66 9.34 20.32 8.68 21 8 C20.67 9.32 20.34 10.64 20 12 C18.35 12.33 16.7 12.66 15 13 C15 13.33 15 13.66 15 14 C14.30132813 13.98839844 13.60265625 13.97679687 12.8828125 13.96484375 C11.97273437 13.95582031 11.06265625 13.94679688 10.125 13.9375 C9.22007812 13.92589844 8.31515625 13.91429687 7.3828125 13.90234375 C4.9831415 13.83750743 4.9831415 13.83750743 3 15 C2.93941406 14.36191406 2.87882813 13.72382812 2.81640625 13.06640625 C2.73261719 12.24011719 2.64882813 11.41382813 2.5625 10.5625 C2.48128906 9.73878906 2.40007813 8.91507813 2.31640625 8.06640625 C2.21069185 6.01337975 2.21069185 6.01337975 1 5 C-1.32817964 4.63239269 -3.6618385 4.29758419 -6 4 C-6 3.67 -6 3.34 -6 3 C-4.35 3 -2.7 3 -1 3 C-0.67 2.01 -0.34 1.02 0 0 Z " fill="#E0BF30" transform="translate(556,688)"/>
<path d="M0 0 C0 4.62 0 9.24 0 14 C-6 17 -6 17 -8 17 C-8 12.05 -8 7.1 -8 2 C-4 0 -4 0 0 0 Z " fill="#E4C227" transform="translate(484,549)"/>
<path d="M0 0 C0 4.95 0 9.9 0 15 C-2.64 15.66 -5.28 16.32 -8 17 C-8 12.05 -8 7.1 -8 2 C-3 0 -3 0 0 0 Z " fill="#EECE31" transform="translate(469,553)"/>
<path d="M0 0 C0 4.95 0 9.9 0 15 C-2.64 15.66 -5.28 16.32 -8 17 C-8 12.05 -8 7.1 -8 2 C-3 0 -3 0 0 0 Z " fill="#E6C729" transform="translate(484,489)"/>
<path d="M0 0 C0 4.95 0 9.9 0 15 C-2.64 15.66 -5.28 16.32 -8 17 C-8 12.05 -8 7.1 -8 2 C-1 0 -1 0 0 0 Z " fill="#EFCF31" transform="translate(418,560)"/>
<path d="M0 0 C0.6875 1.6875 0.6875 1.6875 1 4 C-0.25 6.6875 -0.25 6.6875 -2 9 C-2.99 9.33 -3.98 9.66 -5 10 C-5.33 10.66 -5.66 11.32 -6 12 C0.27 12.33 6.54 12.66 13 13 C13 12.34 13 11.68 13 11 C17.455 10.505 17.455 10.505 22 10 C22 11.65 22 13.3 22 15 C21.01 15 20.02 15 19 15 C16.97256849 15.01694632 14.9451374 15.03394464 12.91770935 15.05130005 C9.49456627 15.07783324 6.0714018 15.09425927 2.64819336 15.10986328 C0.83925063 15.11996456 -0.96967562 15.13364365 -2.77856445 15.15087891 C-5.38496909 15.17505838 -7.99116021 15.18646299 -10.59765625 15.1953125 C-11.40912613 15.20563507 -12.22059601 15.21595764 -13.05665588 15.22659302 C-15.03920986 15.22699183 -17.02123391 15.12249567 -19 15 C-19.66 14.34 -20.32 13.68 -21 13 C-20.67 12.34 -20.34 11.68 -20 11 C-18.14453125 10.69140625 -18.14453125 10.69140625 -15.8125 10.5625 C-10.22380822 10.03911458 -6.52626029 8.69126141 -2.6875 4.4375 C-1.00883883 2.1355288 -1.00883883 2.1355288 0 0 Z " fill="#EFCC3B" transform="translate(508,668)"/>
<path d="M0 0 C0 4.95 0 9.9 0 15 C-2.64 15.99 -5.28 16.98 -8 18 C-8 13.05 -8 8.1 -8 3 C-1.125 0 -1.125 0 0 0 Z " fill="#EBC629" transform="translate(468,434)"/>
<path d="M0 0 C0 4.62 0 9.24 0 14 C-2.64 14.66 -5.28 15.32 -8 16 C-8 11.38 -8 6.76 -8 2 C-4 0 -4 0 0 0 Z " fill="#F6D42F" transform="translate(468,495)"/>
<path d="M0 0 C0 4.62 0 9.24 0 14 C-5 16 -5 16 -8 16 C-8 11.38 -8 6.76 -8 2 C-4 0 -4 0 0 0 Z " fill="#F0CE31" transform="translate(468,465)"/>
<path d="M0 0 C0 4.62 0 9.24 0 14 C-5 16 -5 16 -8 16 C-8 11.38 -8 6.76 -8 2 C-3 0 -3 0 0 0 Z " fill="#EBCC2A" transform="translate(484,459)"/>
<path d="M0 0 C3.5 0.25 3.5 0.25 5.5 2.25 C5.875 5.6875 5.875 5.6875 5.5 9.25 C3.8125 11.25 3.8125 11.25 1.5 12.25 C-1.87036311 12.00925978 -3.08798021 11.66201979 -5.5 9.25 C-5.75 5.75 -5.75 5.75 -5.5 2.25 C-3.5 0.25 -3.5 0.25 0 0 Z " fill="#EDCE39" transform="translate(491.5,655.75)"/>
<path d="M0 0 C6.875 0.875 6.875 0.875 8 2 C8.07258946 4.18639453 8.08373783 6.37500389 8.0625 8.5625 C8.05347656 9.76003906 8.04445313 10.95757813 8.03515625 12.19140625 C8.02355469 13.11824219 8.01195312 14.04507813 8 15 C1.125 14.125 1.125 14.125 0 13 C-0.07258946 10.81360547 -0.08373783 8.62499611 -0.0625 6.4375 C-0.05347656 5.23996094 -0.04445313 4.04242187 -0.03515625 2.80859375 C-0.02355469 1.88175781 -0.01195312 0.95492187 0 0 Z " fill="#262109" transform="translate(534,521)"/>
<path d="M0 0 C3.5 0.25 3.5 0.25 5.5 2.25 C5.75 5.25 5.75 5.25 5.5 8.25 C3.5 10.25 3.5 10.25 0 10.5 C-3.5 10.25 -3.5 10.25 -5.5 8.25 C-5.75 5.25 -5.75 5.25 -5.5 2.25 C-3.5 0.25 -3.5 0.25 0 0 Z " fill="#EDCC33" transform="translate(638.5,696.75)"/>
<path d="M0 0 C2.31 0.33 4.62 0.66 7 1 C7 5.29 7 9.58 7 14 C5.02 14 3.04 14 1 14 C0 13 0 13 -0.09765625 10.05859375 C-0.08605469 8.86363281 -0.07445312 7.66867187 -0.0625 6.4375 C-0.05347656 5.23996094 -0.04445313 4.04242187 -0.03515625 2.80859375 C-0.02355469 1.88175781 -0.01195312 0.95492187 0 0 Z " fill="#191506" transform="translate(534,577)"/>
<path d="M0 0 C2.31 0.33 4.62 0.66 7 1 C7 5.29 7 9.58 7 14 C4.69 14 2.38 14 0 14 C0 9.38 0 4.76 0 0 Z " fill="#0F0E05" transform="translate(519,546)"/>
<path d="M0 0 C2.31 0.66 4.62 1.32 7 2 C7 6.29 7 10.58 7 15 C4.69 14.67 2.38 14.34 0 14 C0 9.38 0 4.76 0 0 Z " fill="#0F0D06" transform="translate(519,488)"/>
<path d="M0 0 C2.31 0.66 4.62 1.32 7 2 C7 6.29 7 10.58 7 15 C1 14 1 14 0 13 C-0.07258946 10.81360547 -0.08373783 8.62499611 -0.0625 6.4375 C-0.05347656 5.23996094 -0.04445313 4.04242188 -0.03515625 2.80859375 C-0.02355469 1.88175781 -0.01195312 0.95492188 0 0 Z " fill="#1A1709" transform="translate(534,436)"/>
<path d="M0 0 C5.875 0.875 5.875 0.875 7 2 C7.07244053 4.01964199 7.08377188 6.04167124 7.0625 8.0625 C7.05347656 9.16722656 7.04445313 10.27195312 7.03515625 11.41015625 C7.02355469 12.26480469 7.01195312 13.11945312 7 14 C5.00045254 14.04254356 2.99958364 14.04080783 1 14 C0 13 0 13 -0.09765625 10.05859375 C-0.08605469 8.86363281 -0.07445312 7.66867187 -0.0625 6.4375 C-0.05347656 5.23996094 -0.04445313 4.04242187 -0.03515625 2.80859375 C-0.02355469 1.88175781 -0.01195312 0.95492187 0 0 Z " fill="#131008" transform="translate(519,517)"/>
<path d="M0 0 C2.31 0.33 4.62 0.66 7 1 C7 5.29 7 9.58 7 14 C4.69 13.67 2.38 13.34 0 13 C0 8.71 0 4.42 0 0 Z " fill="#110F08" transform="translate(519,460)"/>
<path d="M0 0 C6 1 6 1 7 2 C7.07258946 4.18639453 7.08373783 6.37500389 7.0625 8.5625 C7.05347656 9.76003906 7.04445313 10.95757812 7.03515625 12.19140625 C7.02355469 13.11824219 7.01195312 14.04507812 7 15 C4.69 14.34 2.38 13.68 0 13 C0 8.71 0 4.42 0 0 Z " fill="#080804" transform="translate(519,431)"/>
<path d="M0 0 C2.31 0.33 4.62 0.66 7 1 C7 5.29 7 9.58 7 14 C4.69 13.67 2.38 13.34 0 13 C0 8.71 0 4.42 0 0 Z " fill="#171408" transform="translate(549,525)"/>
<path d="M0 0 C2.31 0.66 4.62 1.32 7 2 C7 5.96 7 9.92 7 14 C5.02 14 3.04 14 1 14 C0 13 0 13 -0.09765625 10.05859375 C-0.08605469 8.86363281 -0.07445312 7.66867187 -0.0625 6.4375 C-0.05347656 5.23996094 -0.04445313 4.04242188 -0.03515625 2.80859375 C-0.02355469 1.88175781 -0.01195312 0.95492188 0 0 Z " fill="#151206" transform="translate(549,497)"/>
<path d="M0 0 C6 1 6 1 7 2 C7.07244053 4.01964199 7.08377188 6.04167124 7.0625 8.0625 C7.05347656 9.16722656 7.04445313 10.27195312 7.03515625 11.41015625 C7.02355469 12.26480469 7.01195312 13.11945313 7 14 C4.69 13.67 2.38 13.34 0 13 C0 8.71 0 4.42 0 0 Z " fill="#131106" transform="translate(534,465)"/>
<path d="M0 0 C1.98 0 3.96 0 6 0 C7 1 7 1 7.09765625 3.72265625 C7.08605469 4.82480469 7.07445312 5.92695312 7.0625 7.0625 C7.05347656 8.16722656 7.04445313 9.27195312 7.03515625 10.41015625 C7.02355469 11.26480469 7.01195312 12.11945312 7 13 C4.69 13 2.38 13 0 13 C0 8.71 0 4.42 0 0 Z " fill="#141206" transform="translate(549,580)"/>
<path d="M0 0 C2.31 0.33 4.62 0.66 7 1 C7 5.29 7 9.58 7 14 C4.69 13.67 2.38 13.34 0 13 C0 8.71 0 4.42 0 0 Z " fill="#12110A" transform="translate(519,575)"/>
<path d="M0 0 C2.31 0.33 4.62 0.66 7 1 C7 5.29 7 9.58 7 14 C4.69 13.67 2.38 13.34 0 13 C0 8.71 0 4.42 0 0 Z " fill="#161306" transform="translate(564,502)"/>
<path d="M0 0 C5 1 5 1 7 2 C7 5.96 7 9.92 7 14 C4.69 13.67 2.38 13.34 0 13 C0 8.71 0 4.42 0 0 Z " fill="#151308" transform="translate(549,470)"/>
<path d="M0 0 C2.31 0.33 4.62 0.66 7 1 C7 5.29 7 9.58 7 14 C4.69 13.67 2.38 13.34 0 13 C0 8.71 0 4.42 0 0 Z " fill="#171408" transform="translate(564,475)"/>
<path d="M0 0 C2.31 0.33 4.62 0.66 7 1 C7 5.29 7 9.58 7 14 C4.69 13.34 2.38 12.68 0 12 C0 8.04 0 4.08 0 0 Z " fill="#141206" transform="translate(564,448)"/>
<path d="M0 0 C2.31 0.66 4.62 1.32 7 2 C7 5.96 7 9.92 7 14 C4.69 13.67 2.38 13.34 0 13 C0 8.71 0 4.42 0 0 Z " fill="#0E0D05" transform="translate(549,442)"/>
<path d="M0 0 C0.33 0.66 0.66 1.32 1 2 C0.01 2.495 0.01 2.495 -1 3 C-0.34 3.66 0.32 4.32 1 5 C-8.57 5 -18.14 5 -28 5 C-27.67 4.01 -27.34 3.02 -27 2 C-25.87972412 1.96241577 -25.87972412 1.96241577 -24.73681641 1.92407227 C-21.36602733 1.80831787 -17.99553217 1.68549872 -14.625 1.5625 C-13.449375 1.52318359 -12.27375 1.48386719 -11.0625 1.44335938 C-9.94101562 1.40146484 -8.81953125 1.35957031 -7.6640625 1.31640625 C-6.62717285 1.27974854 -5.5902832 1.24309082 -4.52197266 1.20532227 C-2.00574834 1.15835777 -2.00574834 1.15835777 0 0 Z " fill="#D7B830" transform="translate(528,702)"/>
<path d="M0 0 C4.875 0.875 4.875 0.875 6 2 C6.07244053 4.01964199 6.08377188 6.04167124 6.0625 8.0625 C6.05347656 9.16722656 6.04445313 10.27195312 6.03515625 11.41015625 C6.02355469 12.26480469 6.01195312 13.11945313 6 14 C4.33388095 14.042721 2.66617115 14.04063832 1 14 C0 13 0 13 -0.09765625 10.05859375 C-0.08605469 8.86363281 -0.07445312 7.66867187 -0.0625 6.4375 C-0.05347656 5.23996094 -0.04445313 4.04242188 -0.03515625 2.80859375 C-0.02355469 1.88175781 -0.01195312 0.95492188 0 0 Z " fill="#0D0C08" transform="translate(535,493)"/>
<path d="M0 0 C1.98 0 3.96 0 6 0 C6 4.29 6 8.58 6 13 C4.02 13 2.04 13 0 13 C0 8.71 0 4.42 0 0 Z " fill="#060503" transform="translate(564,556)"/>
<path d="M0 0 C1.98 0 3.96 0 6 0 C6 4.29 6 8.58 6 13 C4.02 13 2.04 13 0 13 C0 8.71 0 4.42 0 0 Z " fill="#080603" transform="translate(550,553)"/>
<path d="M0 0 C1.98 0 3.96 0 6 0 C6 4.29 6 8.58 6 13 C4.02 13 2.04 13 0 13 C0 8.71 0 4.42 0 0 Z " fill="#0E0C07" transform="translate(535,550)"/>
<path d="M0 0 C6.27 0 12.54 0 19 0 C19 1.32 19 2.64 19 4 C12.73 4 6.46 4 0 4 C0 2.68 0 1.36 0 0 Z " fill="#DDBD32" transform="translate(560,658)"/>
<path d="M0 0 C2.97 0.495 2.97 0.495 6 1 C6 4.96 6 8.92 6 13 C4.02 13 2.04 13 0 13 C0 8.71 0 4.42 0 0 Z " fill="#0B0906" transform="translate(564,529)"/>
<path d="M0 0 C2.97 0.495 2.97 0.495 6 1 C6 4.96 6 8.92 6 13 C4.02 13 2.04 13 0 13 C0 8.71 0 4.42 0 0 Z " fill="#0A0905" transform="translate(564,582)"/>
<path d="M0 0 C0.33 0 0.66 0 1 0 C1 5.28 1 10.56 1 16 C7.65999671 15.79225648 7.65999671 15.79225648 9.9375 12.9375 C10.288125 12.298125 10.63875 11.65875 11 11 C11.33773438 11.62648438 11.67546875 12.25296875 12.0234375 12.8984375 C12.46945312 13.71570313 12.91546875 14.53296875 13.375 15.375 C13.81585938 16.18710937 14.25671875 16.99921875 14.7109375 17.8359375 C15.9443893 20.10814302 15.9443893 20.10814302 18 22 C15.69 22.66 13.38 23.32 11 24 C10.34 22.02 9.68 20.04 9 18 C6.03 17.67 3.06 17.34 0 17 C0 11.39 0 5.78 0 0 Z " fill="#C0A62D" transform="translate(462,654)"/>
<path d="M0 0 C9.24 0 18.48 0 28 0 C28 0.66 28 1.32 28 2 C27.19175781 2.19335938 26.38351562 2.38671875 25.55078125 2.5859375 C24.48214844 2.84632813 23.41351562 3.10671875 22.3125 3.375 C21.25675781 3.63023437 20.20101562 3.88546875 19.11328125 4.1484375 C16.29593234 4.91905489 13.68331675 5.85498543 11 7 C10.4375 5.0625 10.4375 5.0625 10 3 C10.33 2.67 10.66 2.34 11 2 C7.37 1.67 3.74 1.34 0 1 C0 0.67 0 0.34 0 0 Z " fill="#DDBE32" transform="translate(614,683)"/>
<path d="M0 0 C9.24 0 18.48 0 28 0 C27.67 0.99 27.34 1.98 27 3 C21.72 3 16.44 3 11 3 C11 2.34 11 1.68 11 1 C7.37 1 3.74 1 0 1 C0 0.67 0 0.34 0 0 Z " fill="#DDBB32" transform="translate(490,692)"/>
<path d="M0 0 C0 1.65 0 3.3 0 5 C-3.21776467 5 -6.42083052 4.89359544 -9.63671875 4.78125 C-11.58481445 4.71357422 -11.58481445 4.71357422 -13.57226562 4.64453125 C-14.94401081 4.59636535 -16.3157556 4.54818812 -17.6875 4.5 C-19.07096189 4.45177545 -20.45442541 4.40359782 -21.83789062 4.35546875 C-25.22527682 4.23744136 -28.61264547 4.11893223 -32 4 C-32 3.67 -32 3.34 -32 3 C-24.41 3 -16.82 3 -9 3 C-9 2.34 -9 1.68 -9 1 C-1.125 0 -1.125 0 0 0 Z " fill="#C3A32E" transform="translate(530,678)"/>
<path d="M0 0 C0 4.95 0 9.9 0 15 C-0.33 15 -0.66 15 -1 15 C-1 10.38 -1 5.76 -1 1 C-5 2.5 -5 2.5 -6 5 C-6.07065617 7.04055005 -6.08421976 9.08334257 -6.0625 11.125 C-6.05347656 12.22070312 -6.04445313 13.31640625 -6.03515625 14.4453125 C-6.02355469 15.28835938 -6.01195312 16.13140625 -6 17 C-6.66 17 -7.32 17 -8 17 C-8 11.72 -8 6.44 -8 1 C-5 0 -5 0 0 0 Z " fill="#D8B72B" transform="translate(404,564)"/>
<path d="M0 0 C2.475 0.495 2.475 0.495 5 1 C5 3.64 5 6.28 5 9 C3.35 8.67 1.7 8.34 0 8 C0 5.36 0 2.72 0 0 Z " fill="#2A250D" transform="translate(611,561)"/>
<path d="M0 0 C2.475 0.495 2.475 0.495 5 1 C5 3.31 5 5.62 5 8 C3.35 8 1.7 8 0 8 C0 5.36 0 2.72 0 0 Z " fill="#3D3613" transform="translate(611,594)"/>
<path d="M0 0 C2.475 0.495 2.475 0.495 5 1 C5 3.31 5 5.62 5 8 C3.35 7.67 1.7 7.34 0 7 C0 4.69 0 2.38 0 0 Z " fill="#2B270F" transform="translate(611,578)"/>
<path d="M0 0 C2.475 0.495 2.475 0.495 5 1 C5 3.31 5 5.62 5 8 C3.35 7.67 1.7 7.34 0 7 C0 4.69 0 2.38 0 0 Z " fill="#2B2711" transform="translate(611,545)"/>
<path d="M0 0 C1.32 0.33 2.64 0.66 4 1 C4 3.64 4 6.28 4 9 C2.68 9 1.36 9 0 9 C0 6.03 0 3.06 0 0 Z " fill="#161407" transform="translate(601,558)"/>
<path d="M0 0 C1.32 0 2.64 0 4 0 C4 2.64 4 5.28 4 8 C2.68 8 1.36 8 0 8 C0 5.36 0 2.72 0 0 Z " fill="#14130A" transform="translate(622,596)"/>
<path d="M0 0 C1.32 0 2.64 0 4 0 C4 2.64 4 5.28 4 8 C2.68 8 1.36 8 0 8 C0 5.36 0 2.72 0 0 Z " fill="#171507" transform="translate(601,576)"/>
<path d="M0 0 C1.32 0 2.64 0 4 0 C4 2.64 4 5.28 4 8 C2.68 8 1.36 8 0 8 C0 5.36 0 2.72 0 0 Z " fill="#171408" transform="translate(601,542)"/>
<path d="M0 0 C0.66 0 1.32 0 2 0 C2 3.63 2 7.26 2 11 C2.66 11 3.32 11 4 11 C4 11.66 4 12.32 4 13 C2.68 13.33 1.36 13.66 0 14 C0 9.38 0 4.76 0 0 Z " fill="#DABE2F" transform="translate(460,497)"/>
<path d="M0 0 C1.32 0.33 2.64 0.66 4 1 C4 3.31 4 5.62 4 8 C2.68 8 1.36 8 0 8 C0 5.36 0 2.72 0 0 Z " fill="#1A1909" transform="translate(601,592)"/>
<path d="M0 0 C1.32 0.33 2.64 0.66 4 1 C4 3.31 4 5.62 4 8 C2.68 8 1.36 8 0 8 C0 5.36 0 2.72 0 0 Z " fill="#1C190A" transform="translate(622,580)"/>
<path d="M0 0 C1.32 0.33 2.64 0.66 4 1 C4 3.31 4 5.62 4 8 C2.68 8 1.36 8 0 8 C0 5.36 0 2.72 0 0 Z " fill="#111109" transform="translate(622,564)"/>
<path d="M0 0 C1.32 0 2.64 0 4 0 C4 2.64 4 5.28 4 8 C2.68 7.67 1.36 7.34 0 7 C0 4.69 0 2.38 0 0 Z " fill="#070706" transform="translate(622,548)"/>
<path d="M0 0 C1.65 0.33 3.3 0.66 5 1 C4.34 2.65 3.68 4.3 3 6 C-1.455 5.01 -1.455 5.01 -6 4 C-6 3.67 -6 3.34 -6 3 C-4.35 3 -2.7 3 -1 3 C-0.67 2.01 -0.34 1.02 0 0 Z " fill="#D2B12F" transform="translate(556,688)"/>
<path d="M0 0 C3.63 0 7.26 0 11 0 C10.67 0.99 10.34 1.98 10 3 C8.02 3.33 6.04 3.66 4 4 C3.67 3.01 3.34 2.02 3 1 C2.01 0.67 1.02 0.34 0 0 Z " fill="#F3CC35" transform="translate(545,688)"/>
<path d="M0 0 C0 0.66 0 1.32 0 2 C-3.63 2.66 -7.26 3.32 -11 4 C-11.33 3.01 -11.66 2.02 -12 1 C-8.0186217 -0.3271261 -4.14954773 -0.06915913 0 0 Z " fill="#F1CD38" transform="translate(642,683)"/>
<path d="M0 0 C1.12587689 2.76351601 1.05900595 3.8414215 0 6.6875 C-2 9 -2 9 -5.6875 9.8125 C-6.780625 9.874375 -7.87375 9.93625 -9 10 C-8.2575 9.46375 -7.515 8.9275 -6.75 8.375 C-3.82325039 5.84735261 -2.01378661 3.28172632 0 0 Z " fill="#DCBB30" transform="translate(508,668)"/>
<path d="M0 0 C1.98567708 0.5859375 3.97135417 1.171875 5.95703125 1.7578125 C4.63703125 2.7478125 3.31703125 3.7378125 1.95703125 4.7578125 C-0.35296875 3.7678125 -2.66296875 2.7778125 -5.04296875 1.7578125 C-2.04296875 -0.2421875 -2.04296875 -0.2421875 0 0 Z " fill="#CFAB2D" transform="translate(648.04296875,684.2421875)"/>
<path d="M0 0 C0.66 1.32 1.32 2.64 2 4 C0.75 5.5625 0.75 5.5625 -1 7 C-3.1875 6.6875 -3.1875 6.6875 -5 6 C-5 5.34 -5 4.68 -5 4 C-4.360625 3.71125 -3.72125 3.4225 -3.0625 3.125 C-0.84793921 2.17176549 -0.84793921 2.17176549 0 0 Z " fill="#EBC631" transform="translate(592,668)"/>
<path d="M0 0 C1.98 0 3.96 0 6 0 C6.33 1.32 6.66 2.64 7 4 C6.4225 3.62875 5.845 3.2575 5.25 2.875 C3 1.70833333 3 1.70833333 0.75 2.875 C-0.11625 3.431875 -0.11625 3.431875 -1 4 C-0.67 2.68 -0.34 1.36 0 0 Z " fill="#F8D840" transform="translate(488,656)"/>
<path d="M0 0 C0.4125 0.45375 0.825 0.9075 1.25 1.375 C3.06408095 3.05950374 4.75285627 3.99265971 7 5 C7 5.33 7 5.66 7 6 C5.00045254 6.04254356 2.99958364 6.04080783 1 6 C0 5 0 5 -0.0625 2.4375 C-0.041875 1.633125 -0.02125 0.82875 0 0 Z " fill="#F2D437" transform="translate(634,701)"/>
<path d="M0 0 C0.99 0.33 1.98 0.66 3 1 C2.34 1.66 1.68 2.32 1 3 C0.53709779 5.66242821 0.53709779 5.66242821 0.375 8.625 C0.30023438 9.62789062 0.22546875 10.63078125 0.1484375 11.6640625 C0.09945313 12.43492187 0.05046875 13.20578125 0 14 C-0.33 14 -0.66 14 -1 14 C-1.02685938 11.85423363 -1.04633088 9.70837355 -1.0625 7.5625 C-1.07410156 6.36753906 -1.08570313 5.17257812 -1.09765625 3.94140625 C-1 1 -1 1 0 0 Z " fill="#E6C32A" transform="translate(397,523)"/>
<path d="M0 0 C0.66 0.33 1.32 0.66 2 1 C2 2.65 2 4.3 2 6 C1.01 6.33 0.02 6.66 -1 7 C-1 3 -1 3 0 0 Z " fill="#E7C737" transform="translate(472,665)"/>
</svg>
