<svg width="654" height="595" viewBox="0 0 654 595" fill="none" xmlns="http://www.w3.org/2000/svg">
<g clip-path="url(#clip0_4_397)" filter="url(#filter0_d_4_397)">
<path d="M4.31152 -0.279297C217.283 -0.279297 430.255 -0.279297 649.681 -0.279297C649.681 193.571 649.681 387.422 649.681 587.146C436.709 587.146 223.737 587.146 4.31152 587.146C4.31152 393.296 4.31152 199.445 4.31152 -0.279297Z" fill="#F4D42D"/>
<path d="M311.229 99.7835C314.83 100.87 318.145 102.415 321.521 104.048C322.61 104.567 322.61 104.567 323.721 105.096C325.276 105.837 326.831 106.581 328.384 107.327C332.47 109.289 336.565 111.233 340.659 113.18C341.469 113.566 342.279 113.952 343.114 114.35C349.537 117.408 355.988 120.401 362.461 123.35C375.643 129.367 388.78 135.48 401.923 141.582C401.923 169.275 401.923 196.968 401.923 225.5C405.22 226.489 408.516 227.478 411.913 228.497C414.956 229.619 417.971 230.762 420.982 231.962C421.797 232.284 422.611 232.605 423.45 232.936C425.153 233.609 426.855 234.284 428.557 234.961C431.15 235.992 433.746 237.016 436.342 238.039C438.008 238.698 439.673 239.357 441.337 240.017C442.106 240.32 442.874 240.623 443.665 240.935C444.756 241.37 444.756 241.37 445.869 241.814C446.5 242.065 447.131 242.315 447.781 242.573C450.528 243.765 453.192 245.14 455.87 246.479C455.87 272.194 455.87 297.909 455.87 324.403C463.782 324.403 471.695 324.403 479.847 324.403C479.847 329.019 479.847 333.634 479.847 338.39C376.658 338.39 273.468 338.39 167.152 338.39C167.152 333.774 167.152 329.159 167.152 324.403C175.065 324.403 182.977 324.403 191.129 324.403C191.129 293.743 191.129 263.083 191.129 231.494C202.273 225.629 213.228 219.889 224.659 214.698C226.992 213.632 229.324 212.564 231.656 211.494C232.743 210.996 233.83 210.498 234.95 209.985C238.735 208.211 242.457 206.328 246.165 204.397C248.073 203.521 248.073 203.521 250.071 203.521C250.051 202.671 250.031 201.821 250.011 200.945C249.83 192.92 249.694 184.896 249.605 176.869C249.559 172.743 249.495 168.618 249.393 164.492C249.295 160.508 249.241 156.526 249.218 152.541C249.202 151.023 249.169 149.506 249.121 147.989C248.756 136.132 248.756 136.132 251.937 132.401C254.251 130.828 256.49 129.685 259.062 128.595C260.041 128.014 261.019 127.434 262.027 126.836C262.886 126.365 263.746 125.893 264.631 125.406C265.618 124.861 266.604 124.315 267.62 123.753C268.649 123.187 269.678 122.621 270.739 122.039C279.36 117.257 287.919 112.39 296.401 107.365C297.327 106.817 298.252 106.269 299.206 105.705C309.387 99.6501 309.387 99.6501 311.229 99.7835Z" fill="#030302"/>
<path d="M312.011 112.61C317.916 114.973 323.736 117.314 329.501 119.966C330.515 120.43 330.515 120.43 331.55 120.902C333.738 121.903 335.924 122.907 338.11 123.912C339.643 124.614 341.175 125.316 342.707 126.017C354.866 131.594 366.984 137.256 379.078 142.971C379.722 143.274 380.365 143.577 381.028 143.89C382.758 144.705 384.487 145.523 386.216 146.341C388.943 147.636 388.943 147.636 391.933 148.575C391.933 206.598 391.933 264.622 391.933 324.403C365.558 324.403 339.184 324.403 312.011 324.403C312.011 254.512 312.011 184.62 312.011 112.61Z" fill="#F1CF2B"/>
<path d="M401.923 235.49C408.669 237.739 408.669 237.739 411.883 238.983C412.599 239.26 413.316 239.536 414.054 239.821C414.807 240.114 415.559 240.406 416.335 240.708C417.516 241.166 417.516 241.166 418.721 241.633C420.374 242.274 422.027 242.917 423.68 243.56C426.22 244.547 428.761 245.53 431.302 246.513C432.911 247.137 434.519 247.762 436.128 248.388C436.89 248.682 437.653 248.977 438.439 249.28C443.767 251.36 443.767 251.36 444.881 252.474C444.975 254.711 444.998 256.951 444.994 259.19C444.994 259.892 444.995 260.593 444.995 261.316C444.994 263.646 444.986 265.976 444.978 268.306C444.977 269.917 444.975 271.528 444.974 273.14C444.97 277.388 444.96 281.637 444.949 285.886C444.937 290.98 444.933 296.073 444.927 301.167C444.917 308.912 444.898 316.658 444.881 324.403C430.705 324.403 416.529 324.403 401.923 324.403C401.923 295.062 401.923 265.721 401.923 235.49Z" fill="#F1CE2C"/>
<path d="M252.069 216.509C252.069 250.795 252.069 285.082 252.069 320.407C247.454 320.407 242.838 320.407 238.083 320.407C238.083 299.967 238.083 279.527 238.083 258.468C229.182 262.094 220.28 265.721 211.109 269.457C209.131 269.952 209.131 269.952 207.113 270.456C207.113 259.577 207.113 248.697 207.113 237.488C217.321 232.282 227.63 227.331 238.021 222.503C238.657 222.206 239.293 221.91 239.949 221.605C241.77 220.757 243.593 219.913 245.416 219.069C246.481 218.576 247.546 218.082 248.643 217.574C251.07 216.509 251.07 216.509 252.069 216.509Z" fill="#F1CE2C"/>
<path d="M226.809 367.927C227.46 367.922 228.112 367.917 228.783 367.911C230.159 367.905 231.536 367.906 232.912 367.915C235.013 367.923 237.112 367.895 239.213 367.863C240.552 367.861 241.891 367.862 243.23 367.865C245.054 367.862 245.054 367.862 246.914 367.859C250.071 368.36 250.071 368.36 252.462 369.884C254.694 373.321 254.659 376.468 254.633 380.438C254.643 381.61 254.643 381.61 254.652 382.804C254.659 384.453 254.656 386.101 254.643 387.749C254.629 390.265 254.663 392.777 254.702 395.293C254.702 396.898 254.701 398.502 254.696 400.107C254.709 400.855 254.722 401.603 254.736 402.374C254.668 406.215 254.183 408.163 251.905 411.295C248.632 413.631 247.058 413.937 243.078 413.91C241.945 413.907 240.812 413.904 239.644 413.902C237.882 413.859 237.882 413.859 236.085 413.816C234.91 413.818 233.736 413.821 232.526 413.824C222.754 413.713 222.754 413.713 218.103 410.319C216.505 407.125 216.919 403.655 216.901 400.146C216.895 399.335 216.889 398.525 216.883 397.69C216.874 395.974 216.867 394.258 216.864 392.543C216.854 389.916 216.823 387.289 216.791 384.663C216.785 382.997 216.78 381.331 216.776 379.666C216.763 378.879 216.751 378.092 216.738 377.281C216.75 374.346 216.764 371.972 218.203 369.367C221.083 367.839 223.564 367.953 226.809 367.927Z" fill="#080703"/>
<path d="M309.26 394.866C310.47 394.854 310.47 394.854 311.704 394.843C313.41 394.832 315.115 394.829 316.821 394.833C319.429 394.834 322.034 394.793 324.641 394.749C326.299 394.743 327.957 394.741 329.615 394.741C330.393 394.724 331.172 394.708 331.974 394.691C335.895 394.741 337.602 394.965 340.476 397.731C342.774 401.696 342.628 404.865 341.981 409.32C341.222 411.924 340.292 413.9 338.984 416.313C336.36 417.626 334.263 417.525 331.328 417.629C330.207 417.67 329.087 417.712 327.933 417.755C326.758 417.795 325.584 417.834 324.374 417.874C323.191 417.918 322.009 417.961 320.791 418.005C317.865 418.111 314.938 418.213 312.011 418.312C311.681 418.971 311.351 419.63 311.012 420.31C321.232 420.31 331.452 420.31 341.981 420.31C342.476 423.771 342.476 423.771 342.98 427.303C339.433 430.742 336.033 430.738 331.34 430.698C330.603 430.701 329.867 430.704 329.108 430.707C327.554 430.709 325.999 430.703 324.445 430.691C322.075 430.674 319.706 430.69 317.336 430.71C315.822 430.708 314.309 430.704 312.795 430.698C312.09 430.704 311.386 430.71 310.66 430.716C306.278 430.654 303.497 430.004 300.022 427.303C297.756 423.903 297.672 422.388 297.587 418.374C297.547 417.335 297.508 416.295 297.466 415.225C298.024 412.317 298.024 412.317 300.185 410.176C303.417 408.061 305.148 407.791 308.971 407.712C310.081 407.68 311.192 407.648 312.337 407.615C314.061 407.594 314.061 407.594 315.82 407.572C316.988 407.542 318.157 407.513 319.361 407.482C322.239 407.412 325.116 407.359 327.995 407.322C328.325 406.663 328.654 406.004 328.994 405.324C327.693 405.34 327.693 405.34 326.366 405.356C323.153 405.39 319.939 405.415 316.726 405.434C315.334 405.444 313.943 405.458 312.551 405.475C310.553 405.499 308.554 405.509 306.555 405.519C305.352 405.53 304.149 405.54 302.909 405.551C300.022 405.324 300.022 405.324 298.024 403.326C297.683 400.659 297.6 399.021 299.028 396.702C302.179 394.54 305.565 394.867 309.26 394.866Z" fill="#080804"/>
<path d="M363.398 355.123C366.957 355.373 366.957 355.373 369.954 357.371C369.954 358.69 369.954 360.009 369.954 361.367C376.877 361.367 383.801 361.367 390.934 361.367C390.934 359.719 390.934 358.07 390.934 356.372C392.511 354.794 394.125 355.166 396.303 355.123C397.094 355.098 397.885 355.072 398.699 355.045C401.514 355.46 402.201 356.131 403.921 358.37C404.309 360.756 404.309 360.756 404.319 363.549C404.325 365.062 404.325 365.062 404.331 366.606C404.319 367.659 404.307 368.712 404.296 369.796C404.307 370.845 404.319 371.894 404.331 372.975C404.327 373.985 404.323 374.996 404.319 376.036C404.316 376.959 404.312 377.882 404.309 378.832C403.848 381.82 403.006 383.177 400.924 385.344C397.36 386.532 394.091 386.524 390.379 386.546C389.642 386.551 388.904 386.557 388.144 386.563C386.583 386.572 385.023 386.579 383.463 386.583C381.084 386.592 378.706 386.623 376.327 386.655C374.809 386.661 373.291 386.667 371.773 386.671C371.065 386.683 370.357 386.695 369.628 386.708C364.819 386.686 361.424 385.805 357.966 382.347C357.713 378.211 357.781 374.064 357.779 369.921C357.766 368.751 357.754 367.581 357.741 366.376C357.74 365.26 357.738 364.144 357.736 362.994C357.731 361.965 357.727 360.935 357.723 359.875C358.122 355.759 359.397 355.414 363.398 355.123Z" fill="#070603"/>
<path d="M311.386 358.433C315.698 361.615 319.29 365.222 321.002 370.358C321.64 377.886 319.842 382.866 315.07 388.715C309.645 392.99 303.653 393.08 297.025 392.337C292.328 390.964 289.651 389.117 286.598 385.281C283.771 379.966 283.274 375.287 284.038 369.359C285.921 364.404 289.027 360.383 293.872 357.992C299.65 356.327 305.699 356.642 311.386 358.433Z" fill="#080704"/>
<g filter="url(#filter1_d_4_397)">
<path d="M458.566 398.602C463.523 400.858 466.69 403.939 469.149 408.857C469.685 415.068 469.002 419.781 465.153 424.842C459.664 429.261 453.621 430.249 446.777 430.188C441.538 429.481 437.736 426.547 434.246 422.719C431.722 418.265 431.596 413.839 432.186 408.857C437.075 398.264 447.835 395.326 458.566 398.602Z" fill="#070604"/>
<path d="M443.353 399C447.865 397.397 453.113 397.466 458.386 399.068C463.193 401.262 466.26 404.236 468.658 408.995C469.17 415.06 468.49 419.602 464.793 424.488C459.453 428.766 453.571 429.744 446.811 429.688C441.775 428.998 438.09 426.184 434.652 422.422C432.246 418.143 432.101 413.88 432.673 408.994C435.064 403.859 438.86 400.596 443.353 399Z" stroke="black" stroke-width="0.999023"/>
</g>
<path d="M183.137 360.368C186.648 360.368 189.025 360.78 192.128 362.429C193.788 365.645 192.915 368.922 192.128 372.356C191.798 373.016 191.469 373.675 191.129 374.354C191.788 374.561 192.448 374.767 193.127 374.979C199.606 377.948 206.595 382.996 210.11 389.34C210.173 393.149 210.173 393.149 209.111 396.333C206.114 398.331 206.114 398.331 203.866 398.893C200.076 398.118 198.608 396.068 196.026 393.289C192.326 389.49 188.193 386.03 183.137 384.345C182.918 384.909 182.699 385.473 182.473 386.054C180.711 389.074 178.492 390.778 175.769 392.961C174.813 393.737 173.858 394.512 172.873 395.311C167.34 399.417 167.34 399.417 163.593 399.143C160.876 398.237 159.731 397.731 158.161 395.334C157.677 392.61 157.677 392.61 158.161 389.34C160.052 386.938 162.364 385.095 164.717 383.158C170.082 378.492 174.185 374.053 177.712 367.798C179.32 365.057 180.965 362.693 183.137 360.368Z" fill="#070603"/>
<path d="M262.06 362.366C269.179 361.688 269.179 361.688 271.655 363.612C273.425 365.836 273.398 366.994 273.342 369.808C273.332 370.655 273.322 371.502 273.312 372.374C273.287 373.254 273.262 374.134 273.236 375.041C273.223 375.933 273.209 376.825 273.195 377.744C273.16 379.945 273.111 382.144 273.049 384.345C273.988 384.31 273.988 384.31 274.945 384.274C275.762 384.256 276.578 384.238 277.42 384.22C278.637 384.185 278.637 384.185 279.878 384.15C282.04 384.345 282.04 384.345 284.038 386.343C284.288 389.839 284.288 389.839 284.038 393.336C282.04 395.334 282.04 395.334 279.878 395.529C279.067 395.506 278.255 395.483 277.42 395.459C276.603 395.441 275.787 395.423 274.945 395.404C274.32 395.381 273.694 395.358 273.049 395.334C273.072 396.203 273.072 396.203 273.096 397.089C273.159 399.73 273.198 402.371 273.236 405.012C273.274 406.379 273.274 406.379 273.312 407.773C273.409 416.673 273.409 416.673 270.052 420.31C267.14 421.186 265.159 420.703 262.06 420.31C259.872 417.028 259.81 416.058 259.803 412.251C259.797 411.221 259.79 410.191 259.784 409.129C259.788 408.018 259.792 406.906 259.796 405.761C259.794 404.62 259.792 403.478 259.79 402.302C259.789 399.886 259.793 397.471 259.801 395.056C259.812 391.353 259.801 387.65 259.788 383.947C259.79 381.603 259.792 379.259 259.796 376.914C259.792 375.803 259.788 374.692 259.784 373.546C259.79 372.516 259.797 371.486 259.803 370.425C259.805 369.518 259.806 368.61 259.808 367.676C260.062 365.363 260.062 365.363 262.06 362.366Z" fill="#040403"/>
<path d="M359.23 389.081C360.304 389.075 361.377 389.069 362.483 389.062C363.641 389.066 364.8 389.07 365.993 389.074C367.182 389.073 368.37 389.071 369.594 389.069C372.108 389.067 374.621 389.071 377.135 389.079C380.994 389.09 384.852 389.079 388.711 389.067C391.15 389.068 393.588 389.071 396.026 389.074C397.767 389.068 397.767 389.068 399.542 389.062C400.613 389.068 401.683 389.075 402.786 389.081C403.73 389.083 404.675 389.084 405.649 389.086C407.917 389.34 407.917 389.34 409.915 391.338C410.352 394.772 410.352 394.772 409.915 398.331C405.662 402.012 401.43 401.689 396.116 401.515C395.329 401.502 394.541 401.488 393.73 401.474C391.798 401.439 389.867 401.386 387.937 401.328C387.978 402.585 388.019 403.842 388.061 405.137C388.175 408.612 387.996 409.231 385.938 412.317C383.847 412.715 383.847 412.715 381.443 412.692C380.65 412.7 379.856 412.707 379.039 412.715C378.349 412.584 377.658 412.453 376.947 412.317C374.271 408.302 374.793 406.082 374.949 401.328C374.073 401.352 374.073 401.352 373.178 401.376C370.522 401.438 367.866 401.477 365.209 401.515C363.829 401.553 363.829 401.553 362.422 401.592C361.534 401.601 360.645 401.611 359.73 401.621C358.914 401.636 358.097 401.652 357.257 401.668C354.378 401.24 353.036 400.364 350.973 398.331C350.536 394.772 350.536 394.772 350.973 391.338C354.299 389.12 355.353 389.088 359.23 389.081Z" fill="#080704"/>
<path d="M457.868 358.37C464.804 357.71 464.804 357.71 467.858 359.619C468.857 361.367 468.857 361.367 468.857 365.363C470.114 365.301 471.371 365.24 472.666 365.176C475.246 365.194 476.594 365.232 478.91 366.425C480.429 369.564 479.628 372.054 478.848 375.353C476.85 377.352 476.85 377.352 473.228 377.476C472.115 377.435 471.003 377.394 469.856 377.352C469.856 378.341 469.856 379.33 469.856 380.349C470.948 380.287 472.041 380.225 473.166 380.161C476.85 380.349 476.85 380.349 478.785 381.472C480.376 384.28 480.299 386.171 479.847 389.34C478.286 391.712 478.286 391.712 475.851 393.336C472.104 393.586 472.104 393.586 468.857 393.336C468.734 393.954 468.61 394.572 468.483 395.209C467.858 397.332 467.858 397.332 465.86 399.33C462.399 399.782 460.585 399.841 457.702 397.791C455.227 394.472 455.33 391.597 455.41 387.619C455.411 386.878 455.411 386.136 455.412 385.373C455.418 383.81 455.434 382.247 455.459 380.685C455.495 378.293 455.5 375.902 455.499 373.51C455.509 371.99 455.521 370.47 455.534 368.95C455.537 368.235 455.539 367.52 455.541 366.783C455.611 363.109 455.775 361.509 457.868 358.37Z" fill="#080704"/>
<path d="M161.516 407.949C162.609 407.943 163.702 407.937 164.829 407.93C166.009 407.94 167.189 407.949 168.405 407.958C170.221 407.958 170.221 407.958 172.074 407.957C174.634 407.959 177.195 407.969 179.755 407.985C183.686 408.009 187.617 408.006 191.548 407.999C194.032 408.005 196.516 408.012 199 408.021C200.773 408.019 200.773 408.019 202.582 408.018C203.673 408.028 204.763 408.037 205.886 408.047C206.849 408.052 207.812 408.056 208.803 408.061C211.109 408.321 211.109 408.321 213.107 410.319C213.545 413.753 213.545 413.753 213.107 417.312C208.371 422.213 199.34 421.281 192.954 421.419C189.055 421.479 185.157 421.494 181.257 421.494C178.816 421.496 176.374 421.514 173.933 421.533C172.363 421.536 170.794 421.538 169.225 421.539C168.143 421.55 168.143 421.55 167.039 421.561C161.737 421.537 157.036 421.182 153.166 417.312C152.611 412.099 152.611 412.099 154.35 409.652C156.823 407.837 158.462 407.947 161.516 407.949Z" fill="#080704"/>
<path d="M361.935 404.864C367.734 405.102 367.734 405.102 369.954 407.322C370.368 409.484 370.368 409.484 370.578 411.943C370.653 412.759 370.728 413.576 370.805 414.417C370.878 415.356 370.878 415.356 370.953 416.313C371.886 416.338 372.819 416.364 373.78 416.389C377.23 416.484 380.68 416.583 384.13 416.685C385.625 416.729 387.12 416.77 388.616 416.81C390.761 416.868 392.906 416.931 395.051 416.996C396.989 417.051 396.989 417.051 398.966 417.107C401.923 417.312 401.923 417.312 402.922 418.312C403.063 420.979 402.964 423.631 402.922 426.304C396.279 430.001 389.974 429.714 382.504 429.613C380.722 429.618 380.722 429.618 378.904 429.623C363.305 429.527 363.305 429.527 358.465 424.93C356.342 419.8 356.119 414.803 356.967 409.32C358.367 406.743 359.039 405.54 361.935 404.864Z" fill="#080804"/>
<path d="M333.927 355.841C334.947 355.857 334.947 355.857 335.987 355.873C336.667 355.862 337.347 355.852 338.048 355.841C340.855 356.611 341.502 357.893 342.98 360.368C343.368 363.219 343.368 363.219 343.379 366.483C343.382 367.665 343.386 368.846 343.39 370.064C343.379 371.294 343.367 372.525 343.355 373.793C343.367 375.019 343.378 376.246 343.39 377.51C343.386 378.692 343.383 379.875 343.379 381.094C343.375 382.172 343.372 383.251 343.368 384.362C342.93 387.729 342.013 389.635 339.983 392.337C337.794 392.93 337.794 392.93 335.425 392.836C334.641 392.826 333.857 392.816 333.049 392.805C330.992 392.337 330.992 392.337 328.994 389.34C328.609 385.217 328.665 381.094 328.679 376.955C328.682 374.927 328.658 372.9 328.633 370.872C328.633 369.591 328.632 368.31 328.631 366.991C328.628 365.817 328.625 364.643 328.622 363.434C329.078 359.68 330.062 356.901 333.927 355.841Z" fill="#0B0A04"/>
<path d="M230.091 380.349C233.717 380.349 237.344 380.349 241.08 380.349C241.08 386.942 241.08 393.536 241.08 400.329C237.454 400.329 233.827 400.329 230.091 400.329C230.091 393.736 230.091 387.142 230.091 380.349Z" fill="#EFCC35"/>
<path d="M454.871 362.366C455.201 362.366 455.53 362.366 455.87 362.366C455.885 363.349 455.899 364.332 455.914 365.345C455.972 368.993 456.049 372.64 456.132 376.287C456.166 377.865 456.194 379.444 456.216 381.023C456.25 383.292 456.302 385.561 456.358 387.83C456.364 388.535 456.371 389.241 456.377 389.968C456.464 392.858 456.534 394.86 458.232 397.259C460.372 398.663 462.347 398.99 464.861 399.33C463.238 400.953 463.238 400.953 460.865 402.327C458.862 401.676 456.866 401.006 454.871 400.329C447.837 399.703 442.131 399.922 435.89 403.326C435.328 401.391 435.328 401.391 434.891 399.33C435.385 398.836 435.385 398.836 435.89 398.331C432.263 398.001 428.637 397.672 424.9 397.332C424.9 397.002 424.9 396.673 424.9 396.333C425.913 396.303 425.913 396.303 426.946 396.273C430.011 396.178 433.075 396.068 436.139 395.958C437.733 395.912 437.733 395.912 439.359 395.865C440.895 395.807 440.895 395.807 442.461 395.748C443.403 395.716 444.345 395.685 445.315 395.653C447.98 395.321 449.642 394.817 451.874 393.336C454.504 387.152 454.307 380.551 454.496 373.917C454.535 372.805 454.574 371.693 454.614 370.548C454.707 367.821 454.793 365.094 454.871 362.366Z" fill="#DDBD32"/>
<path d="M223.098 239.486C223.098 245.091 223.098 250.695 223.098 256.47C215.355 260.466 215.355 260.466 213.107 260.466C213.107 254.861 213.107 249.257 213.107 243.482C220.85 239.486 220.85 239.486 223.098 239.486Z" fill="#110E05"/>
<path d="M238.083 233.492C238.083 239.097 238.083 244.701 238.083 250.476C233.632 251.959 233.632 251.959 229.092 253.473C229.092 247.868 229.092 242.264 229.092 236.489C235.086 233.492 235.086 233.492 238.083 233.492Z" fill="#131106"/>
<path d="M402.922 381.348C403.983 383.221 403.983 383.221 404.92 385.344C404.59 386.003 404.261 386.662 403.921 387.342C404.91 388.001 405.899 388.661 406.918 389.34C390.104 389.34 373.291 389.34 355.968 389.34C355.968 389.01 355.968 388.68 355.968 388.341C357.946 388.341 359.924 388.341 361.962 388.341C361.962 387.681 361.962 387.022 361.962 386.343C363.03 386.323 364.099 386.303 365.2 386.283C369.17 386.207 373.139 386.118 377.108 386.026C378.825 385.987 380.542 385.953 382.259 385.921C384.73 385.876 387.199 385.818 389.669 385.757C390.435 385.746 391.201 385.734 391.991 385.722C397.269 385.589 397.269 385.589 401.923 383.346C402.253 382.686 402.582 382.027 402.922 381.348Z" fill="#E0BE2F"/>
<path d="M280.042 237.488C280.042 242.433 280.042 247.379 280.042 252.474C277.075 253.133 274.108 253.792 271.051 254.472C271.051 249.527 271.051 244.581 271.051 239.486C276.046 237.488 276.046 237.488 280.042 237.488Z" fill="#D7B626"/>
<path d="M296.026 232.493C296.026 237.438 296.026 242.383 296.026 247.479C291.576 247.973 291.576 247.973 287.035 248.478C287.035 243.862 287.035 239.247 287.035 234.491C292.03 232.493 292.03 232.493 296.026 232.493Z" fill="#D9BB27"/>
<path d="M229.092 300.427C229.092 305.702 229.092 310.976 229.092 316.411C225.136 316.906 225.136 316.906 221.1 317.41C221.1 312.135 221.1 306.86 221.1 301.426C225.096 300.427 225.096 300.427 229.092 300.427Z" fill="#E4C328"/>
<path d="M215.105 302.425C215.105 307.7 215.105 312.974 215.105 318.409C211.149 318.904 211.149 318.904 207.113 319.408C207.113 314.463 207.113 309.518 207.113 304.423C212.108 302.425 212.108 302.425 215.105 302.425Z" fill="#EAC72F"/>
<path d="M215.105 277.449C215.105 282.394 215.105 287.34 215.105 292.435C212.468 293.094 209.831 293.753 207.113 294.433C207.113 289.158 207.113 283.883 207.113 278.448C210.11 277.449 210.11 277.449 215.105 277.449Z" fill="#FAD933"/>
<path d="M295.027 141.582C295.027 146.527 295.027 151.472 295.027 156.567C290.032 158.565 290.032 158.565 287.035 158.565C287.035 153.62 287.035 148.675 287.035 143.58C292.03 141.582 292.03 141.582 295.027 141.582Z" fill="#F1D02D"/>
<path d="M366.957 401.328C369.594 401.328 372.232 401.328 374.949 401.328C375.609 404.625 376.268 407.922 376.947 411.318C381.452 411.498 381.452 411.498 385.938 411.318C386.598 410.659 387.257 410 387.937 409.32C387.607 410.639 387.277 411.958 386.938 413.316C385.289 413.646 383.641 413.976 381.942 414.315C381.942 414.645 381.942 414.975 381.942 415.314C381.244 415.303 380.546 415.291 379.827 415.279C378.918 415.27 378.009 415.261 377.072 415.252C376.168 415.24 375.264 415.229 374.333 415.217C371.935 415.152 371.935 415.152 369.954 416.313C369.894 415.676 369.833 415.039 369.771 414.382C369.687 413.556 369.603 412.731 369.517 411.88C369.436 411.057 369.355 410.234 369.271 409.387C369.166 407.336 369.166 407.336 367.956 406.323C365.63 405.956 363.299 405.622 360.963 405.324C360.963 404.995 360.963 404.665 360.963 404.325C362.611 404.325 364.26 404.325 365.958 404.325C366.288 403.336 366.617 402.347 366.957 401.328Z" fill="#E0BF30"/>
<path d="M295.027 262.464C295.027 267.079 295.027 271.695 295.027 276.45C289.033 279.447 289.033 279.447 287.035 279.447C287.035 274.502 287.035 269.557 287.035 264.462C291.031 262.464 291.031 262.464 295.027 262.464Z" fill="#E4C227"/>
<path d="M280.042 266.46C280.042 271.405 280.042 276.35 280.042 281.445C277.405 282.105 274.767 282.764 272.05 283.443C272.05 278.498 272.05 273.553 272.05 268.458C277.045 266.46 277.045 266.46 280.042 266.46Z" fill="#EECE31"/>
<path d="M295.027 202.522C295.027 207.468 295.027 212.413 295.027 217.508C292.39 218.167 289.753 218.827 287.035 219.506C287.035 214.561 287.035 209.616 287.035 204.521C292.03 202.522 292.03 202.522 295.027 202.522Z" fill="#E6C729"/>
<path d="M229.092 273.453C229.092 278.398 229.092 283.343 229.092 288.438C226.454 289.098 223.817 289.757 221.1 290.437C221.1 285.491 221.1 280.546 221.1 275.451C228.093 273.453 228.093 273.453 229.092 273.453Z" fill="#EFCF31"/>
<path d="M319.004 381.348C319.691 383.034 319.691 383.034 320.003 385.344C318.754 388.029 318.754 388.029 317.006 390.339C316.017 390.669 315.028 390.998 314.009 391.338C313.679 391.997 313.349 392.657 313.01 393.336C319.274 393.666 325.538 393.995 331.991 394.335C331.991 393.676 331.991 393.016 331.991 392.337C336.442 391.842 336.442 391.842 340.982 391.338C340.982 392.986 340.982 394.635 340.982 396.333C339.993 396.333 339.004 396.333 337.985 396.333C335.96 396.35 333.934 396.367 331.909 396.384C328.489 396.411 325.069 396.427 321.65 396.443C319.842 396.453 318.035 396.467 316.228 396.484C313.624 396.508 311.021 396.519 308.417 396.528C307.606 396.538 306.795 396.549 305.96 396.559C303.979 396.56 301.999 396.455 300.022 396.333C299.363 395.674 298.704 395.014 298.024 394.335C298.354 393.676 298.684 393.016 299.023 392.337C300.877 392.029 300.877 392.029 303.207 391.9C308.79 391.377 312.484 390.03 316.319 385.781C317.996 383.481 317.996 383.481 319.004 381.348Z" fill="#EFCC3B"/>
<path d="M279.043 147.576C279.043 152.521 279.043 157.467 279.043 162.562C276.406 163.551 273.768 164.54 271.051 165.559C271.051 160.613 271.051 155.668 271.051 150.573C277.919 147.576 277.919 147.576 279.043 147.576Z" fill="#EBC629"/>
<path d="M279.043 208.517C279.043 213.132 279.043 217.748 279.043 222.503C276.406 223.162 273.768 223.822 271.051 224.501C271.051 219.885 271.051 215.27 271.051 210.515C275.047 208.517 275.047 208.517 279.043 208.517Z" fill="#F6D42F"/>
<path d="M279.043 178.546C279.043 183.161 279.043 187.777 279.043 192.532C274.048 194.53 274.048 194.53 271.051 194.53C271.051 189.915 271.051 185.299 271.051 180.544C275.047 178.546 275.047 178.546 279.043 178.546Z" fill="#F0CE31"/>
<path d="M295.027 172.552C295.027 177.167 295.027 181.783 295.027 186.538C290.032 188.536 290.032 188.536 287.035 188.536C287.035 183.921 287.035 179.305 287.035 174.55C292.03 172.552 292.03 172.552 295.027 172.552Z" fill="#EBCC2A"/>
<path d="M302.52 369.11C306.017 369.359 306.017 369.359 308.015 371.357C308.389 374.792 308.389 374.792 308.015 378.351C306.329 380.349 306.329 380.349 304.019 381.348C300.651 381.107 299.435 380.76 297.025 378.351C296.776 374.854 296.776 374.854 297.025 371.357C299.023 369.359 299.023 369.359 302.52 369.11Z" fill="#EDCE39"/>
<path d="M344.979 234.491C351.847 235.365 351.847 235.365 352.971 236.489C353.043 238.674 353.054 240.86 353.033 243.045C353.024 244.242 353.015 245.438 353.006 246.671C352.994 247.597 352.983 248.523 352.971 249.477C346.102 248.602 346.102 248.602 344.979 247.479C344.906 245.294 344.895 243.108 344.916 240.922C344.925 239.726 344.934 238.53 344.943 237.297C344.955 236.371 344.967 235.445 344.979 234.491Z" fill="#262109"/>
<path d="M449.376 410.07C452.873 410.319 452.873 410.319 454.871 412.317C455.121 415.314 455.121 415.314 454.871 418.312C452.873 420.31 452.873 420.31 449.376 420.559C445.88 420.31 445.88 420.31 443.882 418.312C443.632 415.314 443.632 415.314 443.882 412.317C445.88 410.319 445.88 410.319 449.376 410.07Z" fill="#EDCC33"/>
<path d="M344.979 290.437C347.286 290.766 349.594 291.096 351.972 291.436C351.972 295.721 351.972 300.007 351.972 304.423C349.994 304.423 348.016 304.423 345.978 304.423C344.979 303.424 344.979 303.424 344.881 300.485C344.893 299.292 344.904 298.098 344.916 296.868C344.925 295.671 344.934 294.475 344.943 293.242C344.955 292.316 344.967 291.391 344.979 290.437Z" fill="#191506"/>
<path d="M329.993 259.467C332.301 259.796 334.609 260.126 336.986 260.466C336.986 264.752 336.986 269.037 336.986 273.453C334.679 273.453 332.371 273.453 329.993 273.453C329.993 268.838 329.993 264.222 329.993 259.467Z" fill="#0F0E05"/>
<path d="M329.993 201.523C332.301 202.183 334.609 202.842 336.986 203.521C336.986 207.807 336.986 212.093 336.986 216.509C334.679 216.179 332.371 215.849 329.993 215.51C329.993 210.894 329.993 206.279 329.993 201.523Z" fill="#0F0D06"/>
<path d="M344.979 149.574C347.286 150.234 349.594 150.893 351.972 151.572C351.972 155.858 351.972 160.144 351.972 164.56C345.978 163.561 345.978 163.561 344.979 162.562C344.906 160.377 344.895 158.191 344.916 156.005C344.925 154.809 344.934 153.613 344.943 152.38C344.955 151.454 344.967 150.528 344.979 149.574Z" fill="#1A1709"/>
<path d="M329.993 230.495C335.862 231.369 335.862 231.369 336.986 232.493C337.059 234.511 337.07 236.531 337.049 238.55C337.04 239.653 337.031 240.757 337.021 241.894C337.01 242.748 336.998 243.602 336.986 244.481C334.989 244.524 332.99 244.522 330.992 244.481C329.993 243.482 329.993 243.482 329.896 240.544C329.907 239.35 329.919 238.156 329.931 236.926C329.94 235.73 329.949 234.534 329.958 233.301C329.97 232.375 329.981 231.449 329.993 230.495Z" fill="#131008"/>
<path d="M329.993 173.551C332.301 173.88 334.609 174.21 336.986 174.55C336.986 178.836 336.986 183.121 336.986 187.537C334.679 187.207 332.371 186.878 329.993 186.538C329.993 182.252 329.993 177.966 329.993 173.551Z" fill="#110F08"/>
<path d="M329.993 144.579C335.987 145.578 335.987 145.578 336.986 146.577C337.059 148.761 337.07 150.948 337.049 153.133C337.04 154.33 337.031 155.526 337.021 156.759C337.01 157.685 336.998 158.61 336.986 159.564C334.679 158.905 332.371 158.246 329.993 157.566C329.993 153.281 329.993 148.995 329.993 144.579Z" fill="#080804"/>
<path d="M359.964 238.487C362.272 238.817 364.579 239.147 366.957 239.486C366.957 243.772 366.957 248.058 366.957 252.474C364.649 252.144 362.342 251.814 359.964 251.475C359.964 247.189 359.964 242.903 359.964 238.487Z" fill="#171408"/>
<path d="M359.964 210.515C362.272 211.174 364.579 211.833 366.957 212.513C366.957 216.469 366.957 220.425 366.957 224.501C364.979 224.501 363.001 224.501 360.963 224.501C359.964 223.502 359.964 223.502 359.866 220.563C359.878 219.37 359.89 218.176 359.901 216.946C359.91 215.749 359.919 214.553 359.929 213.32C359.94 212.395 359.952 211.469 359.964 210.515Z" fill="#151206"/>
<path d="M344.979 178.546C350.973 179.545 350.973 179.545 351.972 180.544C352.044 182.562 352.055 184.582 352.034 186.601C352.025 187.704 352.016 188.808 352.007 189.945C351.995 190.799 351.984 191.653 351.972 192.532C349.664 192.203 347.356 191.873 344.979 191.533C344.979 187.247 344.979 182.962 344.979 178.546Z" fill="#131106"/>
<path d="M359.964 293.434C361.942 293.434 363.92 293.434 365.958 293.434C366.957 294.433 366.957 294.433 367.055 297.153C367.043 298.254 367.031 299.355 367.019 300.489C367.01 301.593 367.001 302.696 366.992 303.834C366.981 304.687 366.969 305.541 366.957 306.421C364.649 306.421 362.342 306.421 359.964 306.421C359.964 302.135 359.964 297.849 359.964 293.434Z" fill="#141206"/>
<path d="M329.993 288.438C332.301 288.768 334.609 289.098 336.986 289.438C336.986 293.723 336.986 298.009 336.986 302.425C334.679 302.095 332.371 301.765 329.993 301.426C329.993 297.14 329.993 292.854 329.993 288.438Z" fill="#12110A"/>
<path d="M374.949 215.51C377.257 215.839 379.565 216.169 381.942 216.509C381.942 220.795 381.942 225.08 381.942 229.496C379.635 229.166 377.327 228.837 374.949 228.497C374.949 224.211 374.949 219.925 374.949 215.51Z" fill="#161306"/>
<path d="M359.964 183.541C364.959 184.54 364.959 184.54 366.957 185.539C366.957 189.495 366.957 193.451 366.957 197.527C364.649 197.198 362.342 196.868 359.964 196.528C359.964 192.243 359.964 187.957 359.964 183.541Z" fill="#151308"/>
<path d="M374.949 188.536C377.257 188.866 379.565 189.195 381.942 189.535C381.942 193.821 381.942 198.107 381.942 202.522C379.635 202.193 377.327 201.863 374.949 201.523C374.949 197.238 374.949 192.952 374.949 188.536Z" fill="#171408"/>
<path d="M374.949 161.562C377.257 161.892 379.565 162.222 381.942 162.562C381.942 166.847 381.942 171.133 381.942 175.549C379.635 174.889 377.327 174.23 374.949 173.551C374.949 169.595 374.949 165.639 374.949 161.562Z" fill="#141206"/>
<path d="M359.964 155.568C362.272 156.228 364.579 156.887 366.957 157.566C366.957 161.523 366.957 165.479 366.957 169.555C364.649 169.225 362.342 168.895 359.964 168.556C359.964 164.27 359.964 159.984 359.964 155.568Z" fill="#0E0D05"/>
<path d="M338.984 415.314C339.314 415.974 339.644 416.633 339.983 417.312C338.994 417.807 338.994 417.807 337.985 418.312C338.645 418.971 339.304 419.63 339.983 420.31C330.423 420.31 320.862 420.31 311.012 420.31C311.341 419.321 311.671 418.332 312.011 417.312C313.13 417.275 313.13 417.275 314.272 417.237C317.639 417.121 321.006 416.998 324.374 416.875C325.548 416.836 326.723 416.797 327.933 416.756C329.053 416.715 330.173 416.673 331.328 416.63C332.364 416.593 333.4 416.556 334.467 416.519C336.981 416.472 336.981 416.472 338.984 415.314Z" fill="#D7B830"/>
<path d="M345.978 206.519C350.848 207.393 350.848 207.393 351.972 208.517C352.044 210.534 352.055 212.554 352.034 214.573C352.025 215.677 352.016 216.78 352.007 217.918C351.995 218.771 351.984 219.625 351.972 220.505C350.307 220.548 348.641 220.545 346.977 220.505C345.978 219.506 345.978 219.506 345.88 216.567C345.892 215.374 345.903 214.18 345.915 212.95C345.924 211.753 345.933 210.557 345.942 209.324C345.954 208.398 345.966 207.473 345.978 206.519Z" fill="#0D0C08"/>
<path d="M374.949 269.457C376.927 269.457 378.905 269.457 380.943 269.457C380.943 273.743 380.943 278.029 380.943 282.444C378.965 282.444 376.987 282.444 374.949 282.444C374.949 278.159 374.949 273.873 374.949 269.457Z" fill="#060503"/>
<path d="M360.963 266.46C362.941 266.46 364.919 266.46 366.957 266.46C366.957 270.746 366.957 275.032 366.957 279.447C364.979 279.447 363.001 279.447 360.963 279.447C360.963 275.161 360.963 270.876 360.963 266.46Z" fill="#080603"/>
<path d="M345.978 263.463C347.956 263.463 349.934 263.463 351.972 263.463C351.972 267.749 351.972 272.035 351.972 276.45C349.994 276.45 348.016 276.45 345.978 276.45C345.978 272.164 345.978 267.879 345.978 263.463Z" fill="#0E0C07"/>
<path d="M370.953 371.357C377.217 371.357 383.481 371.357 389.935 371.357C389.935 372.676 389.935 373.995 389.935 375.354C383.671 375.354 377.407 375.354 370.953 375.354C370.953 374.035 370.953 372.716 370.953 371.357Z" fill="#DDBD32"/>
<path d="M374.949 242.483C377.916 242.978 377.916 242.978 380.943 243.482C380.943 247.439 380.943 251.395 380.943 255.471C378.965 255.471 376.987 255.471 374.949 255.471C374.949 251.185 374.949 246.899 374.949 242.483Z" fill="#0B0906"/>
<path d="M374.949 295.432C377.916 295.926 377.916 295.926 380.943 296.431C380.943 300.387 380.943 304.343 380.943 308.419C378.965 308.419 376.987 308.419 374.949 308.419C374.949 304.133 374.949 299.847 374.949 295.432Z" fill="#0A0905"/>
<path d="M273.049 367.361C273.379 367.361 273.708 367.361 274.048 367.361C274.048 372.636 274.048 377.911 274.048 383.346C280.701 383.138 280.701 383.138 282.977 380.286C283.327 379.647 283.677 379.009 284.038 378.351C284.375 378.976 284.713 379.602 285.061 380.247C285.506 381.064 285.952 381.88 286.411 382.721C286.851 383.533 287.292 384.344 287.745 385.18C288.978 387.45 288.978 387.45 291.031 389.34C288.724 389.999 286.416 390.659 284.038 391.338C283.379 389.36 282.719 387.382 282.04 385.344C279.073 385.014 276.106 384.684 273.049 384.345C273.049 378.74 273.049 373.136 273.049 367.361Z" fill="#C0A62D"/>
<path d="M424.9 396.333C434.131 396.333 443.362 396.333 452.873 396.333C452.873 396.992 452.873 397.652 452.873 398.331C452.066 398.524 451.258 398.717 450.426 398.916C449.359 399.177 448.291 399.437 447.191 399.705C446.136 399.96 445.082 400.215 443.995 400.477C441.18 401.247 438.57 402.182 435.89 403.326C435.328 401.391 435.328 401.391 434.891 399.33C435.22 399 435.55 398.671 435.89 398.331C432.263 398.001 428.637 397.672 424.9 397.332C424.9 397.002 424.9 396.673 424.9 396.333Z" fill="#DDBE32"/>
<path d="M301.021 405.324C310.252 405.324 319.483 405.324 328.994 405.324C328.664 406.313 328.335 407.302 327.995 408.321C322.72 408.321 317.445 408.321 312.011 408.321C312.011 407.662 312.011 407.003 312.011 406.323C308.384 406.323 304.758 406.323 301.021 406.323C301.021 405.994 301.021 405.664 301.021 405.324Z" fill="#DDBB32"/>
<path d="M340.982 391.338C340.982 392.986 340.982 394.635 340.982 396.333C337.768 396.333 334.568 396.227 331.355 396.114C329.409 396.047 329.409 396.047 327.423 395.978C326.053 395.93 324.683 395.882 323.312 395.833C321.93 395.785 320.548 395.737 319.166 395.689C315.782 395.571 312.398 395.453 309.014 395.334C309.014 395.004 309.014 394.675 309.014 394.335C316.596 394.335 324.179 394.335 331.991 394.335C331.991 393.676 331.991 393.016 331.991 392.337C339.859 391.338 339.859 391.338 340.982 391.338Z" fill="#C3A32E"/>
<path d="M215.105 277.449C215.105 282.394 215.105 287.34 215.105 292.435C214.776 292.435 214.446 292.435 214.106 292.435C214.106 287.819 214.106 283.204 214.106 278.448C210.11 279.947 210.11 279.947 209.111 282.444C209.041 284.483 209.027 286.524 209.049 288.563C209.058 289.658 209.067 290.753 209.076 291.88C209.088 292.723 209.099 293.565 209.111 294.433C208.452 294.433 207.793 294.433 207.113 294.433C207.113 289.158 207.113 283.883 207.113 278.448C210.11 277.449 210.11 277.449 215.105 277.449Z" fill="#D8B72B"/>
<path d="M421.903 274.452C424.376 274.947 424.376 274.947 426.898 275.451C426.898 278.089 426.898 280.726 426.898 283.443C425.25 283.114 423.602 282.784 421.903 282.444C421.903 279.807 421.903 277.169 421.903 274.452Z" fill="#2A250D"/>
<path d="M421.903 307.42C424.376 307.914 424.376 307.914 426.898 308.419C426.898 310.727 426.898 313.034 426.898 315.412C425.25 315.412 423.602 315.412 421.903 315.412C421.903 312.775 421.903 310.137 421.903 307.42Z" fill="#3D3613"/>
<path d="M421.903 291.436C424.376 291.93 424.376 291.93 426.898 292.435C426.898 294.742 426.898 297.05 426.898 299.428C425.25 299.098 423.602 298.768 421.903 298.429C421.903 296.121 421.903 293.813 421.903 291.436Z" fill="#2B270F"/>
<path d="M421.903 258.468C424.376 258.962 424.376 258.962 426.898 259.467C426.898 261.775 426.898 264.082 426.898 266.46C425.25 266.13 423.602 265.801 421.903 265.461C421.903 263.153 421.903 260.845 421.903 258.468Z" fill="#2B2711"/>
<path d="M411.913 271.455C413.232 271.785 414.551 272.114 415.909 272.454C415.909 275.092 415.909 277.729 415.909 280.446C414.59 280.446 413.272 280.446 411.913 280.446C411.913 277.479 411.913 274.512 411.913 271.455Z" fill="#161407"/>
<path d="M432.893 309.418C434.211 309.418 435.53 309.418 436.889 309.418C436.889 312.055 436.889 314.693 436.889 317.41C435.57 317.41 434.251 317.41 432.893 317.41C432.893 314.773 432.893 312.135 432.893 309.418Z" fill="#14130A"/>
<path d="M411.913 289.438C413.232 289.438 414.551 289.438 415.909 289.438C415.909 292.075 415.909 294.712 415.909 297.43C414.59 297.43 413.272 297.43 411.913 297.43C411.913 294.792 411.913 292.155 411.913 289.438Z" fill="#171507"/>
<path d="M411.913 255.471C413.232 255.471 414.551 255.471 415.909 255.471C415.909 258.108 415.909 260.746 415.909 263.463C414.59 263.463 413.272 263.463 411.913 263.463C411.913 260.825 411.913 258.188 411.913 255.471Z" fill="#171408"/>
<path d="M271.051 210.515C271.71 210.515 272.369 210.515 273.049 210.515C273.049 214.141 273.049 217.768 273.049 221.504C273.708 221.504 274.368 221.504 275.047 221.504C275.047 222.163 275.047 222.823 275.047 223.502C273.728 223.832 272.409 224.161 271.051 224.501C271.051 219.885 271.051 215.27 271.051 210.515Z" fill="#DABE2F"/>
<path d="M411.913 305.422C413.232 305.752 414.551 306.081 415.909 306.421C415.909 308.729 415.909 311.036 415.909 313.414C414.59 313.414 413.272 313.414 411.913 313.414C411.913 310.777 411.913 308.139 411.913 305.422Z" fill="#1A1909"/>
<path d="M432.893 293.434C434.211 293.763 435.53 294.093 436.889 294.433C436.889 296.74 436.889 299.048 436.889 301.426C435.57 301.426 434.251 301.426 432.893 301.426C432.893 298.788 432.893 296.151 432.893 293.434Z" fill="#1C190A"/>
<path d="M432.893 277.449C434.211 277.779 435.53 278.109 436.889 278.448C436.889 280.756 436.889 283.064 436.889 285.441C435.57 285.441 434.251 285.441 432.893 285.441C432.893 282.804 432.893 280.167 432.893 277.449Z" fill="#111109"/>
<path d="M432.893 261.465C434.211 261.465 435.53 261.465 436.889 261.465C436.889 264.102 436.889 266.74 436.889 269.457C435.57 269.127 434.251 268.798 432.893 268.458C432.893 266.15 432.893 263.843 432.893 261.465Z" fill="#070706"/>
<path d="M366.957 401.328C368.605 401.658 370.254 401.987 371.952 402.327C371.293 403.976 370.633 405.624 369.954 407.322C365.503 406.333 365.503 406.333 360.963 405.324C360.963 404.995 360.963 404.665 360.963 404.325C362.611 404.325 364.26 404.325 365.958 404.325C366.288 403.336 366.617 402.347 366.957 401.328Z" fill="#D2B12F"/>
<path d="M355.968 401.328C359.594 401.328 363.221 401.328 366.957 401.328C366.627 402.317 366.298 403.306 365.958 404.325C363.98 404.655 362.002 404.985 359.964 405.324C359.634 404.335 359.305 403.346 358.965 402.327C357.976 401.997 356.987 401.668 355.968 401.328Z" fill="#F3CC35"/>
<path d="M452.873 396.333C452.873 396.992 452.873 397.652 452.873 398.331C449.247 398.99 445.62 399.65 441.884 400.329C441.554 399.34 441.224 398.351 440.885 397.332C444.862 396.006 448.728 396.264 452.873 396.333Z" fill="#F1CD38"/>
<path d="M319.004 381.348C320.129 384.108 320.062 385.185 319.004 388.029C317.006 390.339 317.006 390.339 313.322 391.151C312.23 391.212 311.138 391.274 310.013 391.338C310.754 390.802 311.496 390.266 312.26 389.714C315.184 387.189 316.992 384.626 319.004 381.348Z" fill="#DCBB30"/>
<path d="M458.91 397.574C460.894 398.159 462.878 398.745 464.861 399.33C463.543 400.319 462.224 401.308 460.865 402.327C458.557 401.338 456.25 400.349 453.872 399.33C456.869 397.332 456.869 397.332 458.91 397.574Z" fill="#CFAB2D"/>
<path d="M402.922 381.348C403.581 382.666 404.241 383.985 404.92 385.344C403.671 386.905 403.671 386.905 401.923 388.341C399.737 388.029 399.737 388.029 397.927 387.342C397.927 386.682 397.927 386.023 397.927 385.344C398.566 385.055 399.204 384.767 399.862 384.47C402.075 383.517 402.075 383.517 402.922 381.348Z" fill="#EBC631"/>
<path d="M299.023 369.359C301.002 369.359 302.98 369.359 305.018 369.359C305.347 370.678 305.677 371.997 306.017 373.355C305.44 372.985 304.863 372.614 304.268 372.232C302.021 371.066 302.021 371.066 299.773 372.232C298.907 372.788 298.907 372.788 298.024 373.355C298.354 372.037 298.684 370.718 299.023 369.359Z" fill="#F8D840"/>
<path d="M444.881 414.315C445.293 414.769 445.705 415.222 446.13 415.689C447.942 417.372 449.629 418.304 451.874 419.311C451.874 419.64 451.874 419.97 451.874 420.31C449.876 420.352 447.878 420.35 445.88 420.31C444.881 419.311 444.881 419.311 444.818 416.751C444.839 415.947 444.86 415.143 444.881 414.315Z" fill="#F2D437"/>
<g filter="url(#filter2_d_4_397)">
<path d="M440.584 366.633C445.541 368.89 448.708 371.97 451.167 376.888C451.702 383.099 451.02 387.812 447.171 392.873C441.682 397.292 435.639 398.28 428.794 398.219C423.556 397.512 419.754 394.578 416.264 390.75C413.74 386.296 413.614 381.87 414.203 376.888C419.092 366.296 429.852 363.358 440.584 366.633Z" fill="#070604"/>
<path d="M425.37 367.031C429.883 365.428 435.131 365.497 440.403 367.1C445.21 369.294 448.278 372.268 450.676 377.026C451.188 383.091 450.508 387.633 446.811 392.52C441.471 396.797 435.589 397.776 428.828 397.719C423.793 397.029 420.108 394.215 416.67 390.453C414.263 386.175 414.119 381.911 414.69 377.025C417.082 371.89 420.878 368.627 425.37 367.031Z" stroke="black" stroke-width="0.999023"/>
</g>
<path d="M431.394 378.101C434.891 378.351 434.891 378.351 436.889 380.349C437.138 383.346 437.138 383.346 436.889 386.343C434.891 388.341 434.891 388.341 431.394 388.591C427.897 388.341 427.897 388.341 425.899 386.343C425.65 383.346 425.65 383.346 425.899 380.349C427.897 378.351 427.897 378.351 431.394 378.101Z" fill="#EDCC33"/>
<path d="M426.898 382.347C427.311 382.8 427.723 383.253 428.147 383.72C429.96 385.403 431.647 386.335 433.892 387.342C433.892 387.671 433.892 388.001 433.892 388.341C431.894 388.383 429.895 388.382 427.897 388.341C426.898 387.342 426.898 387.342 426.836 384.782C426.857 383.978 426.877 383.175 426.898 382.347Z" fill="#F2D437"/>
<path d="M208.112 236.489C209.101 236.819 210.09 237.149 211.109 237.488C210.45 238.148 209.791 238.807 209.111 239.486C208.649 242.146 208.649 242.146 208.487 245.106C208.412 246.108 208.338 247.11 208.261 248.142C208.212 248.912 208.163 249.682 208.112 250.476C207.783 250.476 207.453 250.476 207.113 250.476C207.086 248.332 207.067 246.188 207.051 244.044C207.039 242.851 207.028 241.657 207.016 240.427C207.113 237.488 207.113 237.488 208.112 236.489Z" fill="#E6C32A"/>
<path d="M283.039 378.351C283.698 378.68 284.358 379.01 285.037 379.35C285.037 380.998 285.037 382.646 285.037 384.345C284.048 384.674 283.059 385.004 282.04 385.344C282.04 381.348 282.04 381.348 283.039 378.351Z" fill="#E7C737"/>
<path d="M511.577 431.99C511.369 431.987 511.592 431.983 511.897 431.981C511.992 431.98 512.416 431.98 512.5 431.98C512.665 431.978 512.457 431.977 512.653 431.976C512.72 431.976 513.391 431.976 513.446 431.976C513.743 431.974 513.572 431.971 513.715 431.969C514.419 431.958 514.67 431.947 514.976 431.936C515.076 431.933 515.685 431.928 515.419 431.924C515.387 431.924 514.798 431.924 514.75 431.924C514.007 431.923 515.196 431.923 515.354 431.922C515.978 431.919 516.032 431.915 515.804 431.912C515.706 431.91 514.536 431.912 515.193 431.91C515.237 431.91 515.863 431.911 515.929 431.91C516.079 431.909 515.968 431.908 516.017 431.907C516.116 431.906 516.11 431.905 516.117 431.904C516.132 431.903 516.443 431.9 516.301 431.899C516.269 431.898 515.628 431.899 515.519 431.898C515.41 431.898 515.464 431.896 515.615 431.895C515.766 431.895 516.27 431.895 516.386 431.895C517.361 431.894 516.011 431.892 515.977 431.892C515.408 431.888 516.177 431.884 516.175 431.88C516.172 431.877 515.918 431.873 515.953 431.87C515.997 431.867 516.344 431.864 516.284 431.86C516.279 431.86 515.525 431.86 515.517 431.86C515.429 431.855 515.511 431.85 516.02 431.845C516.072 431.845 516.734 431.846 516.825 431.845C517.369 431.842 518.676 431.838 515.794 431.836C515.906 431.834 516.023 431.832 516.604 431.83C516.977 431.829 517.699 431.83 517.391 431.828C517.322 431.828 516.691 431.828 516.636 431.828C516.405 431.826 516.61 431.824 516.284 431.822C516.216 431.821 515.65 431.822 515.548 431.821C514.723 431.82 516.087 431.819 516.186 431.819C516.925 431.816 516.634 431.814 516.652 431.812C516.657 431.811 515.897 431.812 515.874 431.811C515.765 431.808 515.83 431.805 516.167 431.803C516.244 431.802 516.892 431.802 516.962 431.802C517.262 431.801 516.039 431.801 516.303 431.799C516.357 431.799 516.911 431.799 516.972 431.799C517.928 431.798 516.574 431.798 516.544 431.798C516.136 431.795 517.549 431.794 517.349 431.791C517.324 431.791 516.622 431.792 516.594 431.791C516.4 431.785 516.593 431.78 517.154 431.775C517.24 431.774 517.767 431.774 517.832 431.774C518.847 431.773 517.487 431.773 517.436 431.773C517.067 431.771 518.207 431.769 516.588 431.767C517.15 431.758 516.24 431.749 517.691 431.741C517.708 431.741 518.378 431.741 518.408 431.741C518.784 431.738 517.744 431.738 516.471 431.737C516.151 431.736 517.688 431.735 517.801 431.735C518.216 431.734 519.212 431.735 519.292 431.735C519.924 431.733 516.629 431.734 516.628 431.732C516.633 431.732 517.24 431.732 517.3 431.732C517.489 431.731 517.248 431.731 517.457 431.731C517.94 431.73 519.541 431.729 518.609 431.728C518.488 431.728 516.62 431.728 516.708 431.726C516.745 431.726 516.713 431.723 516.834 431.723C516.955 431.722 517.557 431.722 517.583 431.722C518.379 431.72 518.709 431.721 519.888 431.72C521.063 431.719 518.262 431.719 517.949 431.719C517.637 431.719 518.294 431.717 518.523 431.717C518.751 431.716 519.134 431.717 519.263 431.717C520.108 431.715 517.873 431.716 517.428 431.715C516.375 431.713 518.453 431.712 518.656 431.711C518.711 431.71 518.238 431.711 518.194 431.71C518.025 431.709 518.673 431.708 518.079 431.706C517.982 431.706 516.733 431.705 517.649 431.704C517.782 431.704 518.299 431.704 518.415 431.704C518.589 431.703 518.702 431.701 518.529 431.7C518.401 431.699 517.548 431.7 517.813 431.699C517.932 431.699 518.431 431.7 518.611 431.699C518.792 431.698 518.77 431.696 518.753 431.696C518.735 431.695 518.088 431.695 518.044 431.695C517.795 431.695 517.483 431.693 517.484 431.693C517.405 431.687 518.495 431.681 518.134 431.675C518.107 431.675 517.424 431.675 517.413 431.675C517.127 431.674 518.942 431.675 519.549 431.674C518.164 431.674 518.415 431.673 518.263 431.672C518.189 431.672 517.653 431.672 517.598 431.672C516.783 431.671 517.835 431.67 518.05 431.67C518.842 431.67 517.907 431.669 518.436 431.669C518.961 431.668 519.739 431.669 519.729 431.668C519.234 431.668 517.938 431.669 517.728 431.668C516.934 431.665 517.951 431.659 518.056 431.656C518.162 431.654 518.07 431.653 518.249 431.652C518.573 431.649 517.612 431.65 517.172 431.648C516.732 431.647 519.097 431.647 519.605 431.647C520.114 431.647 519.591 431.647 519.87 431.646C520.149 431.646 520.495 431.647 520.6 431.646C520.704 431.645 519.8 431.644 519.269 431.643C518.143 431.643 516.961 431.644 517.376 431.642C517.401 431.642 518.023 431.642 518.085 431.642C518.564 431.639 518.594 431.635 519.017 431.632C519.076 431.632 519.768 431.632 519.81 431.632C520.253 431.629 519.086 431.63 517.791 431.629C519.515 431.629 520.57 431.628 520.58 431.626C520.587 431.625 519.834 431.625 519.303 431.625C519.143 431.624 519.66 431.624 519.306 431.623C518.148 431.623 516.852 431.624 517.368 431.622C517.393 431.622 518.027 431.622 518.065 431.621C518.316 431.619 517.105 431.619 516.959 431.617C516.844 431.615 517.582 431.612 517.702 431.61C519.641 431.61 519.197 431.609 517.86 431.608C517.915 431.607 517.839 431.605 518.024 431.604C518.087 431.604 518.648 431.604 518.709 431.604C519.66 431.603 518.36 431.603 518.309 431.602C517.813 431.599 518.799 431.597 517.836 431.594C517.801 431.594 516.454 431.594 517.438 431.593C517.505 431.593 518.118 431.594 518.165 431.593C518.213 431.591 518.935 431.589 518.311 431.587C518.161 431.587 517.067 431.586 517.922 431.585C518.038 431.585 518.424 431.585 518.639 431.585C519.323 431.584 517.962 431.584 519.119 431.583C520.275 431.582 521.141 431.581 520.343 431.579C520.32 431.579 519.241 431.579 519.258 431.578C519.286 431.577 519.511 431.576 519.504 431.575C519.5 431.574 518.83 431.575 518.818 431.575C518.443 431.572 519.04 431.569 519.299 431.566C519.348 431.565 518.435 431.564 519.157 431.562C519.947 431.561 523.236 431.562 522.452 431.559C522.139 431.558 517.967 431.557 520.128 431.555C519.593 431.55 520.699 431.547 519.934 431.542C519.9 431.542 518.736 431.542 518.752 431.541C518.778 431.54 519.322 431.54 519.358 431.54C519.522 431.538 519.056 431.536 519.128 431.534C519.155 431.533 519.717 431.533 519.749 431.533C519.78 431.532 519.039 431.531 519.397 431.53C519.669 431.529 521.184 431.528 521.361 431.527C519.867 431.527 519.897 431.526 519.503 431.525C519.426 431.525 518.907 431.525 518.844 431.525C518.576 431.524 519.006 431.524 518.715 431.523C518.645 431.523 518.134 431.523 518.048 431.523C517.297 431.522 518.445 431.521 518.644 431.52C519.403 431.52 518.74 431.519 519.039 431.518C519.337 431.518 519.711 431.519 519.892 431.518C520.267 431.516 520.185 431.514 520.208 431.512C520.215 431.512 519.534 431.512 519.519 431.512C519.346 431.511 520.07 431.509 518.714 431.508C522.221 431.507 518.374 431.507 519.076 431.505C519.132 431.505 520.791 431.505 521.035 431.506C521.278 431.506 520.76 431.507 521.139 431.508C521.228 431.508 522.783 431.509 522.877 431.51C523.612 431.511 521.134 431.511 520.998 431.511C519.528 431.512 521.203 431.513 521.319 431.514C521.849 431.515 521.5 431.517 521.879 431.518C522.123 431.519 523.747 431.519 523.697 431.52C523.533 431.522 521.268 431.523 523.232 431.526C523.651 431.526 525.425 431.526 524.03 431.527C523.942 431.527 522.665 431.529 523.473 431.53C523.575 431.53 524.092 431.53 524.135 431.53C524.416 431.531 524.004 431.531 524.202 431.532C524.399 431.533 524.693 431.534 524.518 431.535C524.413 431.536 523.449 431.537 523.213 431.537C522.534 431.538 523.648 431.539 522.825 431.539C521.998 431.54 520.742 431.539 520.207 431.54C521.551 431.54 522.93 431.54 524.282 431.54C524.234 431.543 523.8 431.546 523.859 431.549C523.868 431.55 524.59 431.549 524.618 431.55C524.733 431.552 524.218 431.553 524.423 431.555C524.584 431.556 525.349 431.558 525.542 431.559C524.004 431.56 524.526 431.562 524.386 431.564C524.337 431.564 523.927 431.564 523.793 431.565C523.297 431.566 524.656 431.566 524.87 431.566C525.782 431.568 522.707 431.568 522.783 431.57C522.786 431.57 524.425 431.571 524.527 431.571C525.193 431.573 523.957 431.572 523.836 431.572C523.614 431.574 523.223 431.575 523.703 431.576C523.845 431.577 524.867 431.578 524.077 431.579C523.973 431.579 523.431 431.579 523.4 431.579C522.871 431.58 524.573 431.58 525.15 431.581C525.726 431.582 524.551 431.584 524.212 431.584C523.336 431.585 523.838 431.583 523.752 431.583C522.728 431.583 522.905 431.584 522.818 431.585C521.149 431.585 521.249 431.586 522.735 431.586C522.898 431.586 522.742 431.585 522.818 431.585C524.456 431.586 524.666 431.587 523.135 431.588C522.418 431.589 521.581 431.588 521.887 431.59C522.026 431.591 523.175 431.591 523.488 431.592C524.203 431.593 523.131 431.596 523.3 431.598C523.361 431.598 523.991 431.598 524.054 431.598C524.225 431.599 523.753 431.601 523.995 431.602C524.017 431.602 524.676 431.602 524.684 431.602C524.761 431.605 524.339 431.607 524.327 431.611C524.322 431.612 524.685 431.615 524.612 431.616C524.49 431.619 523.532 431.622 523.764 431.624C523.913 431.626 524.572 431.625 525.021 431.626C525.891 431.627 524.333 431.63 524.091 431.63C524.083 431.63 523.928 431.629 523.59 431.629C522.885 431.63 524.088 431.63 524.091 431.63C523.935 431.63 523.786 431.633 523.912 431.633C523.981 431.633 524.605 431.633 524.629 431.633C525.187 431.637 525.346 431.64 525.054 431.644C525.042 431.644 524.343 431.644 524.323 431.644C524.012 431.646 524.866 431.647 525.373 431.649C525.88 431.65 525.71 431.652 524.512 431.652C524.663 431.654 524.133 431.656 523.811 431.657C523.49 431.658 524.849 431.658 524.876 431.658C525.736 431.661 524.958 431.662 524.837 431.665C524.777 431.667 524.974 431.669 525.122 431.671C525.242 431.672 524.924 431.673 525.127 431.674C525.155 431.674 525.76 431.674 525.783 431.674C526.507 431.675 525.028 431.674 524.763 431.675C523.803 431.676 523.291 431.676 523.743 431.678C523.846 431.678 525.976 431.679 526.101 431.68C526.259 431.681 525.496 431.68 525.681 431.681C525.696 431.681 526.167 431.681 526.146 431.682C526.056 431.684 525.782 431.687 525.829 431.69C525.833 431.69 526.581 431.69 526.6 431.69C526.688 431.693 526.66 431.695 526.311 431.698C526.222 431.698 525.699 431.698 525.544 431.698C524.604 431.699 525.97 431.7 525.996 431.7C526.652 431.705 525.416 431.708 526.004 431.713C526.039 431.713 527.503 431.715 526.247 431.716C526.164 431.716 524.879 431.716 525.758 431.717C525.813 431.717 526.474 431.717 526.406 431.718C526.339 431.718 526.781 431.72 526.054 431.721C525.825 431.722 524.544 431.722 525.565 431.724C525.637 431.724 527.946 431.726 526.353 431.726C526.09 431.726 524.404 431.726 525.269 431.728C525.436 431.728 525.813 431.727 526.047 431.728C526.409 431.729 525.958 431.731 526.709 431.732C526.842 431.732 527.986 431.733 527.118 431.734C526.982 431.734 526.419 431.734 526.356 431.734C526.053 431.736 526.43 431.738 526.041 431.74C525.904 431.741 524.994 431.741 524.75 431.741C524.506 431.742 524.272 431.744 524.687 431.744C525.103 431.745 526.554 431.744 526.67 431.745C527.174 431.751 526.323 431.756 526.199 431.761C526.18 431.761 526.699 431.761 526.709 431.762C526.747 431.766 527.234 431.773 526.131 431.776C525.248 431.779 524.576 431.776 524.216 431.778C524.045 431.779 525.731 431.78 525.784 431.78C526.323 431.783 525.576 431.784 525.805 431.787C525.853 431.787 526.536 431.787 526.569 431.787C526.688 431.788 526.383 431.79 526.439 431.791C526.465 431.792 526.987 431.792 526.947 431.792C526.856 431.793 526.637 431.794 526.148 431.796C526.103 431.796 525.454 431.795 525.43 431.796C525.393 431.797 524.91 431.799 525.408 431.801C525.558 431.802 526.751 431.802 525.927 431.803C525.755 431.803 524.323 431.803 525.561 431.804C525.766 431.804 527.436 431.806 526.36 431.807C526.076 431.808 524.904 431.808 525.088 431.809C525.118 431.809 525.759 431.809 525.821 431.809C526.03 431.811 525.962 431.813 526.162 431.815C526.217 431.815 526.88 431.815 526.941 431.815C527.109 431.817 526.94 431.82 526.732 431.822C526.654 431.823 526.105 431.822 526.045 431.822C525.073 431.823 526.385 431.823 526.462 431.824C526.92 431.826 526.304 431.827 526.467 431.828C526.51 431.829 527.136 431.829 527.192 431.829C527.737 431.83 526.613 431.829 526.489 431.83C526.139 431.831 526.189 431.833 526.269 431.835C526.299 431.835 527.025 431.835 527.043 431.835C527.168 431.838 527.099 431.842 526.699 431.845C526.622 431.846 526.064 431.845 525.936 431.845C525.043 431.846 526.261 431.847 526.377 431.848C526.907 431.849 526.413 431.849 526.505 431.851C526.964 431.856 526.637 431.863 526.435 431.869C526.175 431.876 525.643 431.881 525.781 431.888C525.789 431.888 526.532 431.888 526.549 431.888C526.728 431.893 526.438 431.897 526.652 431.902C526.669 431.902 527.373 431.902 527.423 431.902C527.53 431.904 527.492 431.905 527.267 431.907C527.158 431.907 526.554 431.906 526.457 431.907C526.23 431.909 526.18 431.91 526.293 431.912C526.343 431.912 527.063 431.911 527.072 431.912C527.143 431.918 527.267 431.923 526.334 431.929C526.27 431.93 524.806 431.93 525.086 431.931C525.493 431.931 525.971 431.931 526.405 431.931C526.639 431.939 526.132 431.947 526.053 431.956C526.05 431.956 526.826 431.955 526.824 431.956C526.812 431.96 527.027 431.964 526.256 431.968C526.181 431.968 524.816 431.968 525.022 431.969C525.06 431.969 525.242 431.971 525.538 431.972C525.583 431.972 526.22 431.971 526.239 431.972C526.335 431.975 526.19 431.979 525.801 431.982C525.736 431.983 525.058 431.982 525.006 431.982C524.646 431.985 525.162 431.988 524.546 431.991C524.131 431.992 522.958 431.992 521.803 431.993C521.641 431.993 521.615 431.994 520.943 431.994C519.254 431.994 517.404 431.993 515.604 431.994C515.216 431.994 515.633 431.995 514.696 431.994C514.633 431.994 514.322 431.993 514.004 431.993C513.785 431.993 513.101 431.993 512.82 431.993C512.539 431.992 513.112 431.992 512.781 431.991C512.446 431.991 511.669 431.991 511.577 431.99ZM522.374 431.661C521.722 431.662 524.112 431.662 523.54 431.661C523.51 431.661 522.406 431.661 522.374 431.661ZM521.997 431.546C520.942 431.548 522.493 431.548 523.307 431.548C524.12 431.547 522.316 431.546 521.997 431.546ZM521.227 431.534C520.396 431.535 523.785 431.535 523.1 431.534C523.061 431.534 521.275 431.533 521.227 431.534ZM521.475 431.988C521.443 431.988 521.412 431.989 521.443 431.989C522.203 431.989 522.264 431.988 521.475 431.988ZM520.389 431.521C519.93 431.521 520.46 431.523 521.03 431.522C521.489 431.522 520.959 431.52 520.389 431.521ZM519.823 431.711C519.787 431.711 519.755 431.711 519.957 431.711C520.605 431.711 520.422 431.71 519.823 431.711ZM520.35 431.499C520.222 431.502 517.422 431.504 517.738 431.501C517.795 431.5 518.631 431.502 518.884 431.501C519.343 431.5 517.585 431.499 518.527 431.497C518.7 431.497 520.363 431.499 520.354 431.499C520.352 431.499 520.351 431.499 520.35 431.499ZM519.503 431.662C519.471 431.662 519.441 431.662 519.473 431.662C520.232 431.663 520.292 431.661 519.503 431.662ZM518.345 431.743C518.278 431.743 518.215 431.745 518.277 431.745C519.518 431.746 519.649 431.742 518.345 431.743ZM517.754 431.61C516.99 431.61 516.9 431.609 517.859 431.608C517.808 431.609 517.801 431.61 517.754 431.61Z" fill="black"/>
<path d="M532.862 431.502C533.071 431.505 532.848 431.508 532.542 431.511C532.448 431.512 532.024 431.512 531.94 431.512C531.775 431.513 531.983 431.515 531.786 431.516C531.719 431.516 531.048 431.516 530.993 431.516C530.697 431.518 530.868 431.52 530.725 431.523C530.021 431.534 529.769 431.544 529.463 431.556C529.363 431.559 528.754 431.564 529.021 431.568C529.052 431.568 529.641 431.568 529.69 431.568C530.433 431.569 529.244 431.569 529.086 431.57C528.462 431.573 528.408 431.577 528.635 431.58C528.734 431.582 529.904 431.58 529.247 431.582C529.202 431.582 528.577 431.581 528.51 431.582C528.36 431.583 528.472 431.584 528.422 431.585C528.324 431.586 528.33 431.586 528.323 431.588C528.308 431.589 527.997 431.591 528.139 431.593C528.171 431.594 528.812 431.593 528.921 431.594C529.03 431.594 528.976 431.596 528.824 431.596C528.673 431.597 528.169 431.597 528.054 431.597C527.079 431.598 528.429 431.6 528.462 431.6C529.031 431.604 528.262 431.608 528.264 431.612C528.268 431.615 528.522 431.619 528.487 431.622C528.443 431.625 528.095 431.628 528.155 431.632C528.161 431.632 528.915 431.632 528.923 431.632C529.011 431.637 528.928 431.642 528.42 431.646C528.368 431.647 527.706 431.646 527.615 431.647C527.071 431.65 525.764 431.654 528.646 431.656C528.533 431.658 528.417 431.66 527.836 431.662C527.462 431.663 526.741 431.662 527.049 431.664C527.117 431.664 527.749 431.663 527.804 431.664C528.035 431.666 527.83 431.668 528.156 431.67C528.224 431.67 528.79 431.67 528.892 431.67C529.717 431.671 528.353 431.673 528.254 431.673C527.515 431.676 527.805 431.678 527.787 431.68C527.783 431.681 528.543 431.68 528.566 431.681C528.675 431.684 528.609 431.687 528.272 431.689C528.195 431.69 527.548 431.689 527.478 431.69C527.178 431.691 528.401 431.691 528.137 431.692C528.082 431.693 527.528 431.693 527.467 431.693C526.512 431.693 527.866 431.694 527.896 431.694C528.304 431.697 526.891 431.698 527.091 431.701C527.116 431.701 527.817 431.7 527.846 431.701C528.039 431.706 527.847 431.712 527.286 431.717C527.2 431.718 526.673 431.717 526.608 431.717C525.593 431.718 526.953 431.719 527.004 431.719C527.373 431.721 526.232 431.723 527.852 431.725C527.29 431.733 528.199 431.742 526.748 431.751C526.732 431.751 526.062 431.751 526.031 431.751C525.655 431.754 526.696 431.753 527.969 431.755C528.288 431.756 526.752 431.757 526.639 431.757C526.224 431.758 525.228 431.757 525.147 431.757C524.516 431.759 527.811 431.758 527.812 431.76C527.806 431.76 527.2 431.76 527.14 431.76C526.95 431.76 527.191 431.761 526.982 431.761C526.499 431.762 524.899 431.762 525.83 431.764C525.951 431.764 527.82 431.764 527.732 431.765C527.695 431.766 527.727 431.769 527.606 431.769C527.485 431.77 526.883 431.769 526.857 431.77C526.06 431.771 525.73 431.771 524.551 431.772C523.377 431.773 526.178 431.772 526.491 431.773C526.803 431.773 526.146 431.775 525.917 431.775C525.689 431.775 525.306 431.775 525.177 431.775C524.332 431.777 526.567 431.776 527.012 431.777C528.065 431.778 525.987 431.78 525.783 431.781C525.728 431.782 526.202 431.781 526.246 431.782C526.415 431.783 525.767 431.784 526.361 431.785C526.458 431.786 527.707 431.787 526.79 431.788C526.658 431.788 526.14 431.788 526.024 431.788C525.85 431.789 525.737 431.791 525.91 431.792C526.038 431.792 526.891 431.792 526.626 431.792C526.508 431.793 526.009 431.792 525.828 431.793C525.648 431.794 525.67 431.796 525.687 431.796C525.704 431.797 526.352 431.797 526.395 431.797C526.645 431.797 526.957 431.798 526.956 431.798C527.035 431.805 525.944 431.81 526.305 431.816C526.333 431.817 527.015 431.817 527.026 431.817C527.312 431.818 525.498 431.817 524.891 431.818C526.275 431.818 526.025 431.819 526.177 431.82C526.251 431.82 526.787 431.82 526.842 431.82C527.656 431.821 526.604 431.821 526.389 431.822C525.598 431.822 526.533 431.823 526.004 431.823C525.479 431.823 524.7 431.823 524.71 431.824C525.206 431.824 526.501 431.823 526.711 431.824C527.505 431.827 526.489 431.833 526.383 431.835C526.278 431.838 526.369 431.839 526.19 431.84C525.866 431.843 526.827 431.842 527.267 431.844C527.707 431.845 525.343 431.844 524.834 431.845C524.326 431.845 524.849 431.845 524.57 431.845C524.291 431.846 523.945 431.845 523.84 431.846C523.735 431.846 524.639 431.848 525.171 431.848C526.297 431.849 527.479 431.848 527.063 431.85C527.039 431.85 526.417 431.85 526.354 431.85C525.876 431.853 525.846 431.857 525.422 431.86C525.363 431.86 524.672 431.86 524.629 431.86C524.187 431.863 525.353 431.862 526.649 431.863C524.925 431.863 523.87 431.864 523.86 431.865C523.853 431.867 524.606 431.866 525.137 431.867C525.297 431.867 524.78 431.868 525.134 431.868C526.291 431.869 527.587 431.868 527.071 431.87C527.047 431.87 526.413 431.87 526.375 431.87C526.123 431.872 527.334 431.873 527.481 431.875C527.596 431.876 526.858 431.879 526.738 431.881C524.799 431.881 525.243 431.883 526.58 431.884C526.525 431.885 526.6 431.886 526.416 431.888C526.353 431.888 525.791 431.888 525.731 431.888C524.779 431.889 526.08 431.889 526.131 431.89C526.626 431.892 525.641 431.895 526.604 431.898C526.639 431.898 527.985 431.898 527.002 431.899C526.934 431.899 526.322 431.898 526.274 431.899C526.227 431.9 525.505 431.903 526.129 431.905C526.279 431.905 527.372 431.906 526.518 431.907C526.402 431.907 526.016 431.907 525.801 431.907C525.116 431.908 526.477 431.908 525.321 431.909C524.165 431.909 523.299 431.911 524.097 431.913C524.12 431.913 525.199 431.913 525.182 431.914C525.153 431.915 524.929 431.916 524.936 431.917C524.939 431.917 525.609 431.917 525.622 431.917C525.997 431.92 525.4 431.923 525.141 431.926C525.092 431.926 526.005 431.928 525.283 431.929C524.492 431.931 521.204 431.929 521.987 431.932C522.301 431.934 526.473 431.935 524.311 431.937C524.847 431.941 523.741 431.945 524.505 431.949C524.539 431.95 525.704 431.95 525.688 431.951C525.662 431.951 525.118 431.952 525.082 431.952C524.918 431.954 525.384 431.956 525.311 431.958C525.285 431.959 524.722 431.958 524.691 431.959C524.66 431.96 525.401 431.961 525.043 431.962C524.77 431.963 523.256 431.964 523.079 431.965C524.573 431.965 524.542 431.966 524.937 431.967C525.013 431.967 525.533 431.967 525.596 431.967C525.864 431.968 525.433 431.968 525.725 431.969C525.795 431.969 526.305 431.969 526.391 431.969C527.143 431.97 525.995 431.971 525.795 431.971C525.036 431.972 525.7 431.973 525.401 431.973C525.102 431.974 524.729 431.973 524.547 431.974C524.172 431.976 524.255 431.978 524.231 431.98C524.225 431.98 524.906 431.98 524.921 431.98C525.094 431.981 524.369 431.983 525.726 431.984C522.218 431.985 526.066 431.984 525.364 431.986C525.307 431.987 523.648 431.987 523.405 431.986C523.162 431.986 523.68 431.985 523.301 431.984C523.211 431.984 521.657 431.982 521.563 431.982C520.827 431.981 523.306 431.981 523.442 431.981C524.911 431.98 523.237 431.979 523.121 431.978C522.591 431.977 522.939 431.975 522.561 431.974C522.316 431.973 520.693 431.973 520.742 431.972C520.907 431.969 523.172 431.969 521.208 431.966C520.789 431.966 519.014 431.966 520.41 431.964C520.498 431.964 521.774 431.963 520.967 431.962C520.865 431.962 520.348 431.962 520.304 431.962C520.023 431.961 520.435 431.961 520.238 431.96C520.041 431.959 519.747 431.958 519.922 431.957C520.027 431.956 520.99 431.955 521.226 431.955C521.906 431.954 520.792 431.953 521.615 431.953C522.442 431.952 523.698 431.953 524.232 431.952C522.889 431.952 521.509 431.952 520.158 431.951C520.205 431.948 520.64 431.945 520.581 431.942C520.572 431.942 519.849 431.942 519.822 431.942C519.707 431.94 520.222 431.939 520.017 431.937C519.855 431.936 519.09 431.934 518.898 431.933C520.435 431.932 519.913 431.93 520.054 431.928C520.102 431.927 520.513 431.927 520.647 431.927C521.142 431.926 519.784 431.926 519.57 431.926C518.657 431.924 521.733 431.924 521.657 431.922C521.654 431.922 520.014 431.921 519.912 431.92C519.247 431.919 520.483 431.92 520.604 431.919C520.825 431.918 521.217 431.917 520.737 431.916C520.594 431.915 519.573 431.914 520.363 431.913C520.466 431.913 521.008 431.913 521.04 431.913C521.569 431.911 519.866 431.911 519.29 431.91C518.713 431.91 519.889 431.908 520.227 431.908C521.104 431.907 520.602 431.908 520.688 431.908C521.711 431.909 521.535 431.908 521.622 431.907C523.291 431.907 523.191 431.906 521.704 431.906C521.542 431.906 521.698 431.907 521.622 431.907C519.984 431.906 519.774 431.905 521.304 431.904C522.022 431.903 522.858 431.904 522.552 431.902C522.414 431.901 521.265 431.901 520.951 431.9C520.236 431.898 521.309 431.896 521.14 431.894C521.078 431.893 520.449 431.894 520.385 431.894C520.215 431.892 520.687 431.891 520.445 431.89C520.422 431.89 519.764 431.89 519.755 431.89C519.679 431.887 520.101 431.884 520.112 431.881C520.118 431.88 519.754 431.877 519.827 431.876C519.95 431.873 520.908 431.87 520.675 431.867C520.526 431.866 519.867 431.866 519.419 431.866C518.549 431.864 520.107 431.862 520.348 431.862C520.356 431.862 520.512 431.863 520.85 431.863C521.554 431.862 520.351 431.862 520.348 431.862C520.504 431.862 520.654 431.859 520.528 431.859C520.459 431.859 519.835 431.859 519.811 431.859C519.252 431.855 519.094 431.852 519.385 431.848C519.398 431.848 520.096 431.848 520.117 431.848C520.428 431.846 519.573 431.845 519.066 431.843C518.56 431.842 518.729 431.84 519.928 431.839C519.777 431.838 520.307 431.836 520.628 431.835C520.95 431.834 519.591 431.834 519.564 431.834C518.704 431.831 519.482 431.83 519.603 431.827C519.663 431.825 519.466 431.823 519.317 431.821C519.197 431.82 519.516 431.819 519.312 431.818C519.285 431.818 518.68 431.818 518.657 431.818C517.933 431.817 519.412 431.817 519.676 431.817C520.637 431.816 521.149 431.816 520.697 431.814C520.593 431.814 518.463 431.813 518.339 431.812C518.181 431.811 518.944 431.811 518.759 431.811C518.744 431.81 518.273 431.811 518.294 431.81C518.384 431.807 518.658 431.805 518.611 431.802C518.606 431.802 517.859 431.802 517.84 431.802C517.752 431.799 517.779 431.796 518.129 431.794C518.217 431.793 518.74 431.794 518.896 431.794C519.835 431.793 518.47 431.792 518.444 431.792C517.788 431.787 519.024 431.784 518.435 431.779C518.401 431.779 516.937 431.777 518.192 431.776C518.276 431.776 519.56 431.775 518.682 431.775C518.627 431.775 517.966 431.775 518.033 431.774C518.1 431.773 517.659 431.772 518.385 431.771C518.614 431.77 519.896 431.769 518.874 431.768C518.803 431.768 516.494 431.766 518.087 431.766C518.349 431.766 520.035 431.766 519.171 431.764C519.003 431.764 518.627 431.764 518.392 431.764C518.03 431.763 518.482 431.761 517.731 431.76C517.598 431.76 516.453 431.759 517.322 431.758C517.458 431.758 518.021 431.758 518.084 431.758C518.386 431.756 518.01 431.754 518.399 431.752C518.536 431.751 519.446 431.751 519.69 431.75C519.934 431.75 520.168 431.748 519.752 431.747C519.336 431.747 517.886 431.748 517.77 431.746C517.266 431.741 518.117 431.736 518.241 431.731C518.26 431.73 517.741 431.731 517.731 431.73C517.692 431.726 517.206 431.719 518.308 431.715C519.192 431.713 519.864 431.716 520.223 431.714C520.395 431.713 518.709 431.712 518.656 431.711C518.116 431.709 518.863 431.707 518.634 431.705C518.587 431.705 517.903 431.705 517.87 431.705C517.752 431.703 518.057 431.702 518.001 431.701C517.974 431.7 517.452 431.7 517.493 431.7C517.583 431.698 517.803 431.697 518.292 431.696C518.336 431.696 518.986 431.697 519.01 431.696C519.047 431.694 519.53 431.692 519.031 431.691C518.881 431.69 517.688 431.69 518.512 431.689C518.684 431.689 520.117 431.689 518.879 431.688C518.673 431.688 517.004 431.686 518.08 431.684C518.363 431.684 519.536 431.683 519.351 431.683C519.322 431.683 518.681 431.683 518.619 431.683C518.409 431.681 518.478 431.679 518.277 431.677C518.222 431.677 517.559 431.677 517.499 431.677C517.331 431.675 517.5 431.672 517.707 431.67C517.785 431.669 518.334 431.67 518.394 431.67C519.366 431.669 518.054 431.668 517.978 431.668C517.519 431.666 518.136 431.665 517.973 431.663C517.929 431.663 517.304 431.663 517.248 431.663C516.703 431.662 517.826 431.663 517.95 431.662C518.301 431.661 518.251 431.659 518.171 431.657C518.141 431.657 517.415 431.657 517.396 431.657C517.271 431.653 517.341 431.65 517.741 431.647C517.817 431.646 518.376 431.647 518.503 431.647C519.396 431.646 518.179 431.644 518.063 431.644C517.533 431.643 518.027 431.642 517.935 431.641C517.476 431.636 517.803 431.629 518.005 431.623C518.265 431.616 518.797 431.611 518.659 431.604C518.651 431.604 517.907 431.604 517.891 431.604C517.712 431.599 518.002 431.594 517.787 431.59C517.771 431.589 517.067 431.59 517.017 431.589C516.909 431.588 516.948 431.586 517.173 431.585C517.281 431.585 517.886 431.585 517.983 431.585C518.209 431.583 518.259 431.582 518.146 431.58C518.097 431.58 517.376 431.581 517.368 431.58C517.296 431.574 517.172 431.568 518.105 431.563C518.17 431.562 519.634 431.562 519.353 431.561C518.947 431.561 518.469 431.561 518.034 431.561C517.8 431.553 518.308 431.545 518.386 431.536C518.39 431.536 517.614 431.536 517.616 431.536C517.627 431.532 517.412 431.528 518.183 431.524C518.259 431.524 519.624 431.524 519.418 431.523C519.38 431.522 519.198 431.521 518.902 431.52C518.857 431.52 518.22 431.52 518.201 431.52C518.104 431.517 518.25 431.513 518.639 431.51C518.703 431.509 519.382 431.51 519.433 431.509C519.793 431.507 519.278 431.504 519.894 431.501C520.309 431.5 521.482 431.5 522.636 431.499C522.799 431.499 522.825 431.498 523.497 431.498C525.186 431.498 527.036 431.498 528.836 431.498C529.224 431.498 528.806 431.497 529.743 431.498C529.806 431.498 530.117 431.499 530.435 431.499C530.655 431.499 531.338 431.499 531.62 431.499C531.901 431.5 531.328 431.5 531.659 431.501C531.993 431.501 532.77 431.501 532.862 431.502ZM522.065 431.831C522.718 431.83 520.328 431.83 520.9 431.831C520.93 431.831 522.033 431.831 522.065 431.831ZM522.443 431.945C523.497 431.944 521.947 431.943 521.133 431.944C520.319 431.945 522.123 431.946 522.443 431.945ZM523.213 431.958C524.044 431.957 520.654 431.957 521.34 431.958C521.378 431.958 523.164 431.958 523.213 431.958ZM522.965 431.504C522.997 431.504 523.028 431.503 522.996 431.503C522.237 431.502 522.176 431.504 522.965 431.504ZM524.051 431.971C524.509 431.971 523.98 431.969 523.41 431.97C522.951 431.97 523.48 431.972 524.051 431.971ZM524.617 431.781C524.652 431.781 524.684 431.781 524.483 431.781C523.834 431.781 524.017 431.781 524.617 431.781ZM524.09 431.993C524.217 431.99 527.017 431.988 526.701 431.991C526.644 431.992 525.809 431.99 525.556 431.991C525.096 431.992 526.854 431.993 525.912 431.994C525.74 431.995 524.076 431.993 524.086 431.993C524.087 431.993 524.088 431.993 524.09 431.993ZM524.937 431.83C524.968 431.83 524.998 431.829 524.967 431.829C524.208 431.829 524.147 431.83 524.937 431.83ZM526.095 431.749C526.162 431.749 526.225 431.747 526.163 431.747C524.922 431.746 524.791 431.75 526.095 431.749ZM526.686 431.881C527.449 431.882 527.539 431.883 526.581 431.884C526.631 431.883 526.639 431.882 526.686 431.881Z" fill="black"/>
<path d="M519.488 429.014C519.816 428.686 520.968 427.042 522.704 425.299C523.717 424.282 524.619 427.683 525.113 428.43C525.302 428.716 525.935 428.031 526.188 428.187C527.046 428.717 526.114 430.663 525.289 431.738C524.894 432.254 524.137 432.322 523.799 431.915C523.461 431.507 523.461 430.524 523.38 430.427C523.298 430.33 523.134 431.15 523.213 431.244C523.293 431.338 523.62 430.683 523.789 430.837C524.639 431.611 523.794 433.971 524.611 434.887C525.266 435.621 527.723 433.673 528.821 432.754C529.918 431.835 529.918 431.179 529.508 430.678C529.099 430.176 528.279 429.848 527.365 430.007C526.451 430.166 525.468 430.822 525.125 430.832C524.48 430.851 525.94 428.855 526.439 428.108C526.788 427.585 525.12 429.833 524.624 431.649C524.357 432.623 524.455 433.792 524.865 434.137C525.274 434.482 526.094 433.991 526.762 433.41C527.43 432.828 527.922 432.173 528.175 431.507C528.428 430.842 528.428 430.186 527.609 429.848C526.789 429.511 525.15 429.511 524.306 429.92C523.461 430.33 523.461 431.15 523.871 430.752C524.281 430.355 525.1 428.716 525.031 428.363C524.961 428.011 523.978 428.994 523.471 429.829C522.965 430.663 522.965 431.319 523.293 431.492C524.172 431.959 525.607 430.345 526.273 429.516C526.688 428.998 524.296 430.499 523.303 431.572C522.846 432.065 522.965 432.809 523.129 432.737C523.62 431.845 524.122 430.345 523.879 429.434C523.471 429.178 522.488 429.342 520.978 430.007" stroke="#F1CE2C" stroke-width="1.99805" stroke-linecap="round"/>
<path d="M526.938 429.014V428.517" stroke="#F1CE2C" stroke-width="10.9893" stroke-linecap="round"/>
<path d="M520.978 432.987L522.468 434.974" stroke="#F1CE2C" stroke-width="10.9893" stroke-linecap="round"/>
<path d="M526.938 434.477C526.61 434.477 526.933 433.986 527.76 432.913C528.095 432.332 528.259 431.676 527.934 430.929C527.609 430.181 526.789 429.362 524.952 428.021" stroke="#F1CE2C" stroke-width="10.9893" stroke-linecap="round"/>
<path d="M270.052 460.271C302.562 485.496 321.964 491.788 362.961 460.271" stroke="black" stroke-width="6.99316" stroke-linejoin="bevel"/>
</g>
<defs>
<filter id="filter0_d_4_397" x="0.00390625" y="0" width="653.992" height="594.992" filterUnits="userSpaceOnUse" color-interpolation-filters="sRGB">
<feFlood flood-opacity="0" result="BackgroundImageFix"/>
<feColorMatrix in="SourceAlpha" type="matrix" values="0 0 0 0 0 0 0 0 0 0 0 0 0 0 0 0 0 0 127 0" result="hardAlpha"/>
<feOffset dy="3.99609"/>
<feGaussianBlur stdDeviation="1.99805"/>
<feComposite in2="hardAlpha" operator="out"/>
<feColorMatrix type="matrix" values="0 0 0 0 0 0 0 0 0 0 0 0 0 0 0 0 0 0 0.25 0"/>
<feBlend mode="normal" in2="BackgroundImageFix" result="effect1_dropShadow_4_397"/>
<feBlend mode="normal" in="SourceGraphic" in2="effect1_dropShadow_4_397" result="shape"/>
</filter>
<filter id="filter1_d_4_397" x="427.897" y="397.332" width="45.4079" height="40.8507" filterUnits="userSpaceOnUse" color-interpolation-filters="sRGB">
<feFlood flood-opacity="0" result="BackgroundImageFix"/>
<feColorMatrix in="SourceAlpha" type="matrix" values="0 0 0 0 0 0 0 0 0 0 0 0 0 0 0 0 0 0 127 0" result="hardAlpha"/>
<feOffset dy="3.99609"/>
<feGaussianBlur stdDeviation="1.99805"/>
<feComposite in2="hardAlpha" operator="out"/>
<feColorMatrix type="matrix" values="0 0 0 0 0 0 0 0 0 0 0 0 0 0 0 0 0 0 0.25 0"/>
<feBlend mode="normal" in2="BackgroundImageFix" result="effect1_dropShadow_4_397"/>
<feBlend mode="normal" in="SourceGraphic" in2="effect1_dropShadow_4_397" result="shape"/>
</filter>
<filter id="filter2_d_4_397" x="409.915" y="365.363" width="45.4079" height="40.8507" filterUnits="userSpaceOnUse" color-interpolation-filters="sRGB">
<feFlood flood-opacity="0" result="BackgroundImageFix"/>
<feColorMatrix in="SourceAlpha" type="matrix" values="0 0 0 0 0 0 0 0 0 0 0 0 0 0 0 0 0 0 127 0" result="hardAlpha"/>
<feOffset dy="3.99609"/>
<feGaussianBlur stdDeviation="1.99805"/>
<feComposite in2="hardAlpha" operator="out"/>
<feColorMatrix type="matrix" values="0 0 0 0 0 0 0 0 0 0 0 0 0 0 0 0 0 0 0.25 0"/>
<feBlend mode="normal" in2="BackgroundImageFix" result="effect1_dropShadow_4_397"/>
<feBlend mode="normal" in="SourceGraphic" in2="effect1_dropShadow_4_397" result="shape"/>
</filter>
<clipPath id="clip0_4_397">
<rect width="646" height="587" fill="white" transform="translate(4)"/>
</clipPath>
</defs>
</svg>
